<?xml version="1.0" encoding="utf-8"?>
<!-- Generator: Adobe Illustrator 16.0.0, SVG Export Plug-In . SVG Version: 6.00 Build 0)  -->
<!DOCTYPE svg PUBLIC "-//W3C//DTD SVG 1.1//EN" "http://www.w3.org/Graphics/SVG/1.1/DTD/svg11.dtd">
<svg version="1.1" id="livetype" xmlns="http://www.w3.org/2000/svg" xmlns:xlink="http://www.w3.org/1999/xlink" x="0px" y="0px"
	 width="118.053px" height="38.251px" viewBox="0 0 118.053 38.251" enable-background="new 0 0 118.053 38.251"
	 xml:space="preserve">
<g>
	<g>
		<g>
			<path d="M7.707,38.25c-0.305,0-0.602-0.004-0.904-0.011c-0.626-0.009-1.251-0.063-1.869-0.163
				c-0.576-0.1-1.135-0.284-1.657-0.548c-0.517-0.262-0.989-0.604-1.397-1.017c-0.414-0.406-0.759-0.879-1.021-1.396
				c-0.265-0.521-0.448-1.08-0.543-1.657c-0.103-0.62-0.159-1.247-0.167-1.875c-0.006-0.211-0.015-0.913-0.015-0.913V7.569
				c0,0,0.009-0.691,0.015-0.895c0.008-0.628,0.063-1.253,0.166-1.872C0.41,4.225,0.594,3.664,0.858,3.141
				c0.261-0.518,0.604-0.989,1.015-1.398C2.285,1.33,2.758,0.985,3.276,0.721c0.521-0.264,1.078-0.447,1.653-0.545
				c0.62-0.102,1.247-0.156,1.875-0.164L7.707,0h102.768l0.914,0.013c0.623,0.007,1.244,0.062,1.857,0.163
				c0.582,0.098,1.145,0.283,1.672,0.547c1.037,0.535,1.883,1.382,2.414,2.42c0.262,0.52,0.441,1.076,0.535,1.649
				c0.105,0.624,0.162,1.255,0.174,1.888c0.004,0.283,0.004,0.587,0.004,0.89c0.008,0.375,0.008,0.731,0.008,1.092V29.59
				c0,0.363,0,0.718-0.008,1.075c0,0.325,0,0.623-0.004,0.93c-0.012,0.621-0.068,1.241-0.172,1.854
				c-0.092,0.581-0.275,1.145-0.539,1.67c-0.264,0.513-0.607,0.979-1.016,1.386c-0.408,0.414-0.881,0.759-1.4,1.022
				c-0.525,0.267-1.086,0.451-1.668,0.55c-0.617,0.102-1.242,0.155-1.869,0.163c-0.293,0.007-0.6,0.011-0.896,0.011l-1.084,0.002
				L7.707,38.25z"/>
		</g>
		<g id="_Group_">
			<g id="_Group_2">
				<g id="_Group_3">
					<path id="_Path_" fill="#FFFFFF" d="M24.031,19.426c0.021-1.696,0.911-3.264,2.356-4.152c-0.916-1.308-2.395-2.107-3.991-2.157
						c-1.679-0.177-3.307,1.004-4.163,1.004c-0.872,0-2.189-0.987-3.608-0.958c-1.867,0.061-3.564,1.097-4.473,2.729
						c-1.934,3.348-0.492,8.27,1.361,10.977c0.927,1.324,2.01,2.805,3.428,2.753c1.387-0.058,1.905-0.885,3.58-0.885
						c1.659,0,2.145,0.885,3.591,0.851c1.488-0.023,2.426-1.33,3.321-2.668c0.666-0.945,1.178-1.988,1.518-3.094
						C25.182,23.077,24.033,21.346,24.031,19.426z"/>
					<path id="_Path_2" fill="#FFFFFF" d="M21.299,11.336c0.812-0.975,1.211-2.227,1.115-3.49c-1.24,0.13-2.385,0.723-3.208,1.659
						c-0.813,0.925-1.224,2.134-1.144,3.361C19.319,12.879,20.512,12.314,21.299,11.336z"/>
				</g>
			</g>
			<g>
				<path fill="#FFFFFF" d="M41.564,26.265h-4.733l-1.137,3.356h-2.005l4.483-12.418h2.083l4.483,12.418H42.7L41.564,26.265z
					 M37.321,24.716h3.752l-1.85-5.447h-0.052L37.321,24.716z"/>
				<path fill="#FFFFFF" d="M54.421,25.095c0,2.813-1.506,4.621-3.778,4.621c-1.175,0.062-2.281-0.554-2.849-1.584h-0.043v4.484
					h-1.858V20.567h1.799v1.506h0.034c0.593-1.024,1.701-1.639,2.883-1.601C52.907,20.473,54.421,22.289,54.421,25.095z
					 M52.511,25.095c0-1.833-0.947-3.038-2.393-3.038c-1.42,0-2.375,1.23-2.375,3.038c0,1.824,0.955,3.046,2.375,3.046
					C51.564,28.141,52.511,26.944,52.511,25.095z"/>
				<path fill="#FFFFFF" d="M64.387,25.095c0,2.813-1.506,4.621-3.779,4.621c-1.174,0.062-2.281-0.554-2.848-1.584h-0.043v4.484
					h-1.858V20.567h1.798v1.506h0.035c0.593-1.024,1.7-1.639,2.883-1.601C62.871,20.473,64.387,22.289,64.387,25.095z
					 M62.477,25.095c0-1.833-0.947-3.038-2.393-3.038c-1.42,0-2.375,1.23-2.375,3.038c0,1.824,0.956,3.046,2.375,3.046
					C61.529,28.141,62.477,26.944,62.477,25.095L62.477,25.095z"/>
				<path fill="#FFFFFF" d="M70.973,26.161c0.137,1.231,1.334,2.04,2.969,2.04c1.566,0,2.693-0.809,2.693-1.919
					c0-0.964-0.68-1.541-2.289-1.937l-1.609-0.388c-2.281-0.551-3.34-1.617-3.34-3.348c0-2.143,1.867-3.614,4.52-3.614
					c2.623,0,4.422,1.472,4.482,3.614h-1.875c-0.113-1.239-1.137-1.987-2.635-1.987c-1.496,0-2.521,0.757-2.521,1.858
					c0,0.878,0.654,1.395,2.256,1.79l1.367,0.336c2.549,0.603,3.607,1.626,3.607,3.442c0,2.323-1.852,3.778-4.795,3.778
					c-2.754,0-4.613-1.421-4.732-3.667H70.973z"/>
				<path fill="#FFFFFF" d="M82.607,18.425v2.143h1.723v1.472h-1.723v4.991c0,0.775,0.346,1.137,1.102,1.137
					c0.205-0.003,0.408-0.019,0.611-0.043v1.463c-0.34,0.063-0.686,0.093-1.031,0.086c-1.834,0-2.549-0.688-2.549-2.444v-5.189
					h-1.316v-1.472h1.316v-2.143H82.607z"/>
				<path fill="#FFFFFF" d="M85.326,25.095c0-2.849,1.678-4.639,4.295-4.639c2.625,0,4.295,1.79,4.295,4.639
					c0,2.856-1.662,4.639-4.295,4.639S85.326,27.951,85.326,25.095z M92.021,25.095c0-1.954-0.895-3.107-2.4-3.107
					s-2.4,1.162-2.4,3.107c0,1.962,0.895,3.106,2.4,3.106S92.021,27.057,92.021,25.095L92.021,25.095z"/>
				<path fill="#FFFFFF" d="M95.447,20.567h1.773v1.541h0.043c0.246-0.992,1.156-1.675,2.178-1.636
					c0.213-0.001,0.428,0.022,0.637,0.069v1.738c-0.271-0.083-0.553-0.12-0.836-0.112c-1.033-0.042-1.904,0.762-1.947,1.795
					c-0.004,0.096,0,0.192,0.012,0.288v5.37h-1.859V20.567z"/>
				<path fill="#FFFFFF" d="M108.646,26.962c-0.25,1.644-1.852,2.771-3.898,2.771c-2.635,0-4.27-1.765-4.27-4.596
					c0-2.84,1.645-4.682,4.191-4.682c2.504,0,4.08,1.721,4.08,4.466v0.637h-6.395v0.112c-0.115,1.298,0.844,2.442,2.141,2.557
					c0.098,0.009,0.195,0.011,0.295,0.008c0.9,0.085,1.752-0.434,2.09-1.273H108.646z M102.363,24.26h4.527
					c0.066-1.201-0.854-2.229-2.053-2.295c-0.057-0.003-0.113-0.004-0.168-0.003c-1.266-0.008-2.299,1.013-2.307,2.278
					C102.363,24.246,102.363,24.254,102.363,24.26z"/>
			</g>
		</g>
	</g>
	<g id="_Group_4">
		<g>
			<path fill="#FFFFFF" d="M37.088,7.855c1.454-0.104,2.717,0.99,2.822,2.444c0.013,0.174,0.008,0.349-0.014,0.521
				c0,1.906-1.03,3.003-2.808,3.003h-2.155V7.855H37.088z M35.859,12.979h1.125c1.034,0.063,1.923-0.727,1.984-1.76
				c0.008-0.129,0.002-0.258-0.017-0.386c0.141-1.029-0.579-1.978-1.608-2.119c-0.119-0.017-0.24-0.021-0.36-0.015h-1.125V12.979z"
				/>
			<path fill="#FFFFFF" d="M40.942,11.569c-0.112-1.173,0.748-2.214,1.92-2.327c1.173-0.111,2.214,0.748,2.327,1.921
				c0.013,0.136,0.013,0.271,0,0.406c0.114,1.173-0.744,2.217-1.917,2.33c-1.173,0.114-2.216-0.743-2.331-1.917
				C40.929,11.846,40.929,11.707,40.942,11.569z M44.275,11.569c0-0.976-0.438-1.547-1.208-1.547c-0.772,0-1.207,0.571-1.207,1.547
				c0,0.983,0.435,1.55,1.207,1.55C43.837,13.119,44.275,12.549,44.275,11.569L44.275,11.569z"/>
			<path fill="#FFFFFF" d="M50.835,13.823h-0.922l-0.931-3.317h-0.07l-0.927,3.317h-0.913L45.831,9.32h0.901l0.807,3.436h0.066
				l0.926-3.436h0.853l0.926,3.436h0.07l0.803-3.436h0.889L50.835,13.823z"/>
			<path fill="#FFFFFF" d="M53.115,9.32h0.855v0.715h0.066c0.231-0.527,0.771-0.849,1.344-0.803c0.806-0.061,1.51,0.545,1.57,1.352
				c0.008,0.107,0.004,0.217-0.012,0.324v2.915H56.05v-2.692c0-0.724-0.314-1.084-0.971-1.084c-0.57-0.025-1.053,0.414-1.08,0.984
				c-0.002,0.053,0,0.105,0.005,0.157v2.635h-0.889V9.32z"/>
			<path fill="#FFFFFF" d="M58.356,7.563h0.888v6.261h-0.888V7.563z"/>
			<path fill="#FFFFFF" d="M60.479,11.569c-0.111-1.173,0.748-2.215,1.922-2.327c1.172-0.111,2.215,0.748,2.326,1.921
				c0.014,0.136,0.014,0.271,0,0.406c0.115,1.173-0.744,2.217-1.916,2.33c-1.174,0.114-2.217-0.744-2.332-1.917
				C60.467,11.846,60.467,11.707,60.479,11.569z M63.813,11.569c0-0.976-0.439-1.547-1.209-1.547c-0.771,0-1.207,0.571-1.207,1.547
				c0,0.983,0.436,1.55,1.207,1.55C63.373,13.119,63.813,12.549,63.813,11.569z"/>
			<path fill="#FFFFFF" d="M65.662,12.549c0-0.811,0.604-1.277,1.676-1.344l1.219-0.07v-0.389c0-0.476-0.314-0.744-0.922-0.744
				c-0.496,0-0.84,0.182-0.938,0.5h-0.861c0.092-0.773,0.818-1.27,1.84-1.27c1.129,0,1.766,0.563,1.766,1.514v3.077h-0.855v-0.634
				h-0.07c-0.291,0.463-0.807,0.733-1.352,0.708c-0.748,0.077-1.416-0.465-1.494-1.213C65.664,12.64,65.662,12.595,65.662,12.549z
				 M68.557,12.164v-0.376l-1.1,0.07c-0.619,0.042-0.9,0.253-0.9,0.649c0,0.405,0.352,0.641,0.834,0.641
				c0.584,0.06,1.104-0.365,1.164-0.949C68.555,12.188,68.557,12.176,68.557,12.164z"/>
			<path fill="#FFFFFF" d="M70.609,11.569c0-1.423,0.732-2.324,1.869-2.324c0.574-0.026,1.113,0.281,1.381,0.79h0.066V7.563h0.889
				v6.261h-0.852v-0.712h-0.07c-0.289,0.505-0.834,0.808-1.414,0.786C71.334,13.897,70.609,12.996,70.609,11.569z M71.527,11.569
				c0,0.955,0.451,1.53,1.203,1.53c0.75,0,1.213-0.584,1.213-1.526c0-0.938-0.469-1.53-1.213-1.53
				C71.982,10.043,71.527,10.622,71.527,11.569L71.527,11.569z"/>
			<path fill="#FFFFFF" d="M78.492,11.569c-0.113-1.173,0.746-2.214,1.92-2.327c1.172-0.111,2.215,0.748,2.326,1.921
				c0.014,0.136,0.014,0.271,0,0.406c0.115,1.173-0.744,2.217-1.916,2.33c-1.174,0.114-2.217-0.743-2.33-1.917
				C78.479,11.846,78.479,11.707,78.492,11.569z M81.824,11.569c0-0.976-0.438-1.547-1.207-1.547c-0.773,0-1.207,0.571-1.207,1.547
				c0,0.983,0.434,1.55,1.207,1.55C81.387,13.119,81.824,12.549,81.824,11.569z"/>
			<path fill="#FFFFFF" d="M83.932,9.32h0.855v0.715h0.066c0.23-0.527,0.77-0.849,1.344-0.803c0.807-0.061,1.51,0.545,1.57,1.352
				c0.008,0.107,0.004,0.217-0.012,0.324v2.915h-0.889v-2.692c0-0.724-0.314-1.084-0.973-1.084c-0.57-0.025-1.053,0.414-1.08,0.984
				c-0.002,0.053,0,0.105,0.006,0.157v2.635h-0.889V9.32z"/>
			<path fill="#FFFFFF" d="M92.777,8.199V9.34h0.975v0.749h-0.975v2.315c0,0.472,0.193,0.678,0.637,0.678
				c0.113,0,0.227-0.007,0.338-0.02v0.739c-0.16,0.029-0.32,0.045-0.482,0.046c-0.988,0-1.383-0.348-1.383-1.216v-2.543h-0.715V9.34
				h0.715V8.199H92.777z"/>
			<path fill="#FFFFFF" d="M94.967,7.563h0.881v2.48h0.07c0.242-0.531,0.791-0.854,1.373-0.807c0.816-0.044,1.516,0.583,1.561,1.4
				c0.006,0.094,0.002,0.187-0.01,0.279v2.907h-0.891v-2.688c0-0.719-0.334-1.084-0.963-1.084c-0.578-0.047-1.086,0.384-1.135,0.963
				c-0.004,0.06-0.004,0.119,0.002,0.18v2.63h-0.889V7.563z"/>
			<path fill="#FFFFFF" d="M104.023,12.607c-0.25,0.849-1.072,1.397-1.951,1.302c-1.131,0.03-2.07-0.86-2.1-1.99
				c-0.002-0.111,0.004-0.224,0.02-0.333c-0.152-1.137,0.645-2.183,1.781-2.335c0.098-0.013,0.195-0.019,0.295-0.019
				c1.252,0,2.008,0.856,2.008,2.271v0.31h-3.18v0.051c-0.055,0.654,0.432,1.23,1.086,1.285c0.037,0.004,0.076,0.005,0.113,0.004
				c0.436,0.053,0.857-0.163,1.072-0.545H104.023z M100.896,11.156h2.275c0.043-0.599-0.406-1.12-1.004-1.164
				c-0.035-0.003-0.07-0.004-0.105-0.003c-0.635-0.008-1.158,0.501-1.166,1.138C100.896,11.137,100.896,11.146,100.896,11.156
				L100.896,11.156z"/>
		</g>
	</g>
</g>
</svg>
