<?xml version="1.0" encoding="utf-8"?>
<!-- Generator: Adobe Illustrator 16.0.0, SVG Export Plug-In . SVG Version: 6.00 Build 0)  -->
<!DOCTYPE svg PUBLIC "-//W3C//DTD SVG 1.1//EN" "http://www.w3.org/Graphics/SVG/1.1/DTD/svg11.dtd">
<svg version="1.1" id="layer" xmlns="http://www.w3.org/2000/svg" xmlns:xlink="http://www.w3.org/1999/xlink" x="0px" y="0px"
	 width="197.254px" height="129.303px" viewBox="0 0 197.254 129.303" enable-background="new 0 0 197.254 129.303"
	 xml:space="preserve">
<g opacity="0.2">
	<g>
		<circle fill="#FFFFFF" cx="88.135" cy="-1.893" r="1.892"/>
	</g>
	<g>
		<circle fill="#FFFFFF" cx="93.181" cy="-1.893" r="1.892"/>
	</g>
	<g>
		<circle fill="#FFFFFF" cx="98.227" cy="-1.893" r="1.892"/>
	</g>
	<g>
		<circle fill="#FFFFFF" cx="103.273" cy="-1.893" r="1.892"/>
	</g>
	<g>
		<circle fill="#FFFFFF" cx="108.319" cy="-1.893" r="1.892"/>
	</g>
	<g>
		<circle fill="#FFFFFF" cx="113.365" cy="-1.893" r="1.892"/>
	</g>
	<g>
		<circle fill="#FFFFFF" cx="118.411" cy="-1.893" r="1.892"/>
	</g>
	<g>
		<circle fill="#FFFFFF" cx="123.457" cy="-1.893" r="1.892"/>
	</g>
	<g>
		<circle fill="#FFFFFF" cx="128.503" cy="-1.893" r="1.892"/>
	</g>
	<g>
		<circle fill="#FFFFFF" cx="133.549" cy="-1.893" r="1.892"/>
	</g>
	<g>
		<circle fill="#FFFFFF" cx="138.595" cy="-1.893" r="1.892"/>
	</g>
	<g>
		<circle fill="#FFFFFF" cx="143.641" cy="-1.893" r="1.892"/>
	</g>
	<g>
		<circle fill="#FFFFFF" cx="148.687" cy="-1.893" r="1.892"/>
	</g>
	<g>
		<circle fill="#FFFFFF" cx="153.733" cy="-1.893" r="1.892"/>
	</g>
	<g>
		<circle fill="#FFFFFF" cx="158.779" cy="-1.893" r="1.892"/>
	</g>
	<g>
		<circle fill="#FFFFFF" cx="163.824" cy="-1.893" r="1.892"/>
	</g>
	<g>
		<circle fill="#FFFFFF" cx="168.87" cy="-1.893" r="1.892"/>
	</g>
	<g>
		<circle fill="#FFFFFF" cx="173.917" cy="-1.893" r="1.892"/>
	</g>
	<g>
		<circle fill="#FFFFFF" cx="178.962" cy="-1.893" r="1.892"/>
	</g>
	<g>
		<circle fill="#FFFFFF" cx="199.146" cy="-1.893" r="1.892"/>
	</g>
	<g>
		<circle fill="#FFFFFF" cx="78.043" cy="3.153" r="1.892"/>
	</g>
	<g>
		<circle fill="#FFFFFF" cx="83.089" cy="3.153" r="1.892"/>
	</g>
	<g>
		<circle fill="#FFFFFF" cx="88.135" cy="3.153" r="1.892"/>
	</g>
	<g>
		<circle fill="#FFFFFF" cx="93.181" cy="3.153" r="1.892"/>
	</g>
	<g>
		<circle fill="#FFFFFF" cx="98.227" cy="3.153" r="1.892"/>
	</g>
	<g>
		<circle fill="#FFFFFF" cx="103.273" cy="3.153" r="1.892"/>
	</g>
	<g>
		<circle fill="#FFFFFF" cx="108.319" cy="3.153" r="1.892"/>
	</g>
	<g>
		<circle fill="#FFFFFF" cx="113.365" cy="3.153" r="1.892"/>
	</g>
	<g>
		<circle fill="#FFFFFF" cx="118.411" cy="3.153" r="1.892"/>
	</g>
	<g>
		<circle fill="#FFFFFF" cx="123.457" cy="3.153" r="1.892"/>
	</g>
	<g>
		<circle fill="#FFFFFF" cx="128.503" cy="3.153" r="1.892"/>
	</g>
	<g>
		<circle fill="#FFFFFF" cx="133.549" cy="3.153" r="1.892"/>
	</g>
	<g>
		<circle fill="#FFFFFF" cx="138.595" cy="3.153" r="1.892"/>
	</g>
	<g>
		<circle fill="#FFFFFF" cx="143.641" cy="3.153" r="1.892"/>
	</g>
	<g>
		<circle fill="#FFFFFF" cx="148.687" cy="3.153" r="1.892"/>
	</g>
	<g>
		<circle fill="#FFFFFF" cx="153.733" cy="3.153" r="1.892"/>
	</g>
	<g>
		<circle fill="#FFFFFF" cx="158.779" cy="3.153" r="1.892"/>
	</g>
	<g>
		<circle fill="#FFFFFF" cx="163.824" cy="3.153" r="1.892"/>
	</g>
	<g>
		<circle fill="#FFFFFF" cx="168.87" cy="3.153" r="1.892"/>
	</g>
	<g>
		<circle fill="#FFFFFF" cx="173.917" cy="3.153" r="1.892"/>
	</g>
	<g>
		<circle fill="#FFFFFF" cx="194.1" cy="3.153" r="1.892"/>
	</g>
	<g>
		<circle fill="#FFFFFF" cx="199.146" cy="3.153" r="1.892"/>
	</g>
	<g>
		<circle fill="#FFFFFF" cx="78.043" cy="8.2" r="1.892"/>
	</g>
	<g>
		<circle fill="#FFFFFF" cx="83.089" cy="8.2" r="1.892"/>
	</g>
	<g>
		<circle fill="#FFFFFF" cx="88.135" cy="8.2" r="1.892"/>
	</g>
	<g>
		<circle fill="#FFFFFF" cx="93.181" cy="8.2" r="1.892"/>
	</g>
	<g>
		<circle fill="#FFFFFF" cx="98.227" cy="8.2" r="1.892"/>
	</g>
	<g>
		<circle fill="#FFFFFF" cx="103.273" cy="8.2" r="1.892"/>
	</g>
	<g>
		<circle fill="#FFFFFF" cx="108.319" cy="8.2" r="1.892"/>
	</g>
	<g>
		<circle fill="#FFFFFF" cx="113.365" cy="8.2" r="1.892"/>
	</g>
	<g>
		<circle fill="#FFFFFF" cx="118.411" cy="8.2" r="1.892"/>
	</g>
	<g>
		<circle fill="#FFFFFF" cx="123.457" cy="8.2" r="1.892"/>
	</g>
	<g>
		<circle fill="#FFFFFF" cx="128.503" cy="8.2" r="1.892"/>
	</g>
	<g>
		<circle fill="#FFFFFF" cx="133.549" cy="8.2" r="1.892"/>
	</g>
	<g>
		<circle fill="#FFFFFF" cx="138.595" cy="8.2" r="1.892"/>
	</g>
	<g>
		<circle fill="#FFFFFF" cx="143.641" cy="8.2" r="1.892"/>
	</g>
	<g>
		<circle fill="#FFFFFF" cx="148.687" cy="8.2" r="1.892"/>
	</g>
	<g>
		<circle fill="#FFFFFF" cx="153.733" cy="8.2" r="1.892"/>
	</g>
	<g>
		<circle fill="#FFFFFF" cx="158.779" cy="8.2" r="1.892"/>
	</g>
	<g>
		<circle fill="#FFFFFF" cx="163.824" cy="8.2" r="1.892"/>
	</g>
	<g>
		<circle fill="#FFFFFF" cx="189.054" cy="8.2" r="1.892"/>
	</g>
	<g>
		<circle fill="#FFFFFF" cx="194.1" cy="8.2" r="1.892"/>
	</g>
	<g>
		<circle fill="#FFFFFF" cx="199.146" cy="8.2" r="1.892"/>
	</g>
	<g>
		<circle fill="#FFFFFF" cx="78.043" cy="13.246" r="1.892"/>
	</g>
	<g>
		<circle fill="#FFFFFF" cx="83.089" cy="13.246" r="1.892"/>
	</g>
	<g>
		<circle fill="#FFFFFF" cx="88.135" cy="13.246" r="1.892"/>
	</g>
	<g>
		<circle fill="#FFFFFF" cx="108.319" cy="13.246" r="1.892"/>
	</g>
	<g>
		<circle fill="#FFFFFF" cx="113.365" cy="13.246" r="1.892"/>
	</g>
	<g>
		<circle fill="#FFFFFF" cx="118.411" cy="13.246" r="1.892"/>
	</g>
	<g>
		<circle fill="#FFFFFF" cx="123.457" cy="13.246" r="1.892"/>
	</g>
	<g>
		<circle fill="#FFFFFF" cx="128.503" cy="13.246" r="1.892"/>
	</g>
	<g>
		<circle fill="#FFFFFF" cx="133.549" cy="13.246" r="1.892"/>
	</g>
	<g>
		<circle fill="#FFFFFF" cx="138.595" cy="13.246" r="1.892"/>
	</g>
	<g>
		<circle fill="#FFFFFF" cx="143.641" cy="13.246" r="1.892"/>
	</g>
	<g>
		<circle fill="#FFFFFF" cx="148.687" cy="13.246" r="1.892"/>
	</g>
	<g>
		<circle fill="#FFFFFF" cx="153.733" cy="13.246" r="1.892"/>
	</g>
	<g>
		<circle fill="#FFFFFF" cx="158.779" cy="13.246" r="1.892"/>
	</g>
	<g>
		<circle fill="#FFFFFF" cx="163.824" cy="13.246" r="1.892"/>
	</g>
	<g>
		<circle fill="#FFFFFF" cx="189.054" cy="13.246" r="1.892"/>
	</g>
	<g>
		<circle fill="#FFFFFF" cx="194.1" cy="13.246" r="1.892"/>
	</g>
	<g>
		<circle fill="#FFFFFF" cx="199.146" cy="13.246" r="1.892"/>
	</g>
	<g>
		<circle fill="#FFFFFF" cx="108.319" cy="18.292" r="1.892"/>
	</g>
	<g>
		<circle fill="#FFFFFF" cx="113.365" cy="18.292" r="1.892"/>
	</g>
	<g>
		<circle fill="#FFFFFF" cx="118.411" cy="18.292" r="1.892"/>
	</g>
	<g>
		<circle fill="#FFFFFF" cx="123.457" cy="18.292" r="1.892"/>
	</g>
	<g>
		<circle fill="#FFFFFF" cx="128.503" cy="18.292" r="1.892"/>
	</g>
	<g>
		<circle fill="#FFFFFF" cx="133.549" cy="18.292" r="1.892"/>
	</g>
	<g>
		<circle fill="#FFFFFF" cx="138.595" cy="18.292" r="1.892"/>
	</g>
	<g>
		<circle fill="#FFFFFF" cx="143.641" cy="18.292" r="1.892"/>
	</g>
	<g>
		<circle fill="#FFFFFF" cx="148.687" cy="18.292" r="1.892"/>
	</g>
	<g>
		<circle fill="#FFFFFF" cx="153.733" cy="18.292" r="1.892"/>
	</g>
	<g>
		<circle fill="#FFFFFF" cx="158.779" cy="18.292" r="1.892"/>
	</g>
	<g>
		<circle fill="#FFFFFF" cx="163.824" cy="18.292" r="1.892"/>
	</g>
	<g>
		<circle fill="#FFFFFF" cx="168.87" cy="18.292" r="1.892"/>
	</g>
	<g>
		<circle fill="#FFFFFF" cx="173.917" cy="18.292" r="1.892"/>
	</g>
	<g>
		<circle fill="#FFFFFF" cx="178.962" cy="18.292" r="1.892"/>
	</g>
	<g>
		<circle fill="#FFFFFF" cx="184.008" cy="18.292" r="1.892"/>
	</g>
	<g>
		<circle fill="#FFFFFF" cx="189.054" cy="18.292" r="1.892"/>
	</g>
	<g>
		<circle fill="#FFFFFF" cx="194.1" cy="18.292" r="1.892"/>
	</g>
	<g>
		<circle fill="#FFFFFF" cx="199.146" cy="18.292" r="1.892"/>
	</g>
	<g>
		<circle fill="#FFFFFF" cx="108.319" cy="23.337" r="1.892"/>
	</g>
	<g>
		<circle fill="#FFFFFF" cx="113.365" cy="23.337" r="1.892"/>
	</g>
	<g>
		<circle fill="#FFFFFF" cx="118.411" cy="23.337" r="1.892"/>
	</g>
	<g>
		<circle fill="#FFFFFF" cx="123.457" cy="23.337" r="1.892"/>
	</g>
	<g>
		<circle fill="#FFFFFF" cx="128.503" cy="23.337" r="1.892"/>
	</g>
	<g>
		<circle fill="#FFFFFF" cx="133.549" cy="23.337" r="1.892"/>
	</g>
	<g>
		<circle fill="#FFFFFF" cx="138.595" cy="23.337" r="1.892"/>
	</g>
	<g>
		<circle fill="#FFFFFF" cx="143.641" cy="23.337" r="1.892"/>
	</g>
	<g>
		<circle fill="#FFFFFF" cx="148.687" cy="23.337" r="1.892"/>
	</g>
	<g>
		<circle fill="#FFFFFF" cx="153.733" cy="23.337" r="1.892"/>
	</g>
	<g>
		<circle fill="#FFFFFF" cx="158.779" cy="23.337" r="1.892"/>
	</g>
	<g>
		<circle fill="#FFFFFF" cx="163.824" cy="23.337" r="1.892"/>
	</g>
	<g>
		<circle fill="#FFFFFF" cx="168.87" cy="23.337" r="1.892"/>
	</g>
	<g>
		<circle fill="#FFFFFF" cx="173.917" cy="23.337" r="1.892"/>
	</g>
	<g>
		<circle fill="#FFFFFF" cx="178.962" cy="23.337" r="1.892"/>
	</g>
	<g>
		<circle fill="#FFFFFF" cx="184.008" cy="23.337" r="1.892"/>
	</g>
	<g>
		<circle fill="#FFFFFF" cx="189.054" cy="23.337" r="1.892"/>
	</g>
	<g>
		<circle fill="#FFFFFF" cx="194.1" cy="23.337" r="1.892"/>
	</g>
	<g>
		<circle fill="#FFFFFF" cx="199.146" cy="23.337" r="1.892"/>
	</g>
	<g>
		<circle fill="#FFFFFF" cx="108.319" cy="28.383" r="1.892"/>
	</g>
	<g>
		<circle fill="#FFFFFF" cx="113.365" cy="28.383" r="1.892"/>
	</g>
	<g>
		<circle fill="#FFFFFF" cx="118.411" cy="28.383" r="1.892"/>
	</g>
	<g>
		<circle fill="#FFFFFF" cx="123.457" cy="28.383" r="1.892"/>
	</g>
	<g>
		<circle fill="#FFFFFF" cx="128.503" cy="28.383" r="1.892"/>
	</g>
	<g>
		<circle fill="#FFFFFF" cx="133.549" cy="28.383" r="1.892"/>
	</g>
	<g>
		<circle fill="#FFFFFF" cx="138.595" cy="28.383" r="1.892"/>
	</g>
	<g>
		<circle fill="#FFFFFF" cx="143.641" cy="28.383" r="1.892"/>
	</g>
	<g>
		<circle fill="#FFFFFF" cx="148.687" cy="28.383" r="1.892"/>
	</g>
	<g>
		<circle fill="#FFFFFF" cx="153.733" cy="28.383" r="1.892"/>
	</g>
	<g>
		<circle fill="#FFFFFF" cx="158.779" cy="28.383" r="1.892"/>
	</g>
	<g>
		<circle fill="#FFFFFF" cx="163.824" cy="28.383" r="1.892"/>
	</g>
	<g>
		<circle fill="#FFFFFF" cx="168.87" cy="28.383" r="1.892"/>
	</g>
	<g>
		<circle fill="#FFFFFF" cx="173.917" cy="28.383" r="1.892"/>
	</g>
	<g>
		<circle fill="#FFFFFF" cx="178.962" cy="28.383" r="1.892"/>
	</g>
	<g>
		<circle fill="#FFFFFF" cx="184.008" cy="28.383" r="1.892"/>
	</g>
	<g>
		<circle fill="#FFFFFF" cx="189.054" cy="28.383" r="1.892"/>
	</g>
	<g>
		<circle fill="#FFFFFF" cx="194.1" cy="28.383" r="1.892"/>
	</g>
	<g>
		<circle fill="#FFFFFF" cx="108.319" cy="33.429" r="1.892"/>
	</g>
	<g>
		<circle fill="#FFFFFF" cx="113.365" cy="33.429" r="1.892"/>
	</g>
	<g>
		<circle fill="#FFFFFF" cx="118.411" cy="33.429" r="1.892"/>
	</g>
	<g>
		<circle fill="#FFFFFF" cx="123.457" cy="33.429" r="1.892"/>
	</g>
	<g>
		<circle fill="#FFFFFF" cx="128.503" cy="33.429" r="1.892"/>
	</g>
	<g>
		<circle fill="#FFFFFF" cx="133.549" cy="33.429" r="1.892"/>
	</g>
	<g>
		<circle fill="#FFFFFF" cx="138.595" cy="33.429" r="1.892"/>
	</g>
	<g>
		<circle fill="#FFFFFF" cx="143.641" cy="33.429" r="1.892"/>
	</g>
	<g>
		<circle fill="#FFFFFF" cx="148.687" cy="33.429" r="1.892"/>
	</g>
	<g>
		<circle fill="#FFFFFF" cx="153.733" cy="33.429" r="1.892"/>
	</g>
	<g>
		<circle fill="#FFFFFF" cx="158.779" cy="33.429" r="1.892"/>
	</g>
	<g>
		<circle fill="#FFFFFF" cx="163.824" cy="33.429" r="1.892"/>
	</g>
	<g>
		<circle fill="#FFFFFF" cx="168.87" cy="33.429" r="1.892"/>
	</g>
	<g>
		<circle fill="#FFFFFF" cx="173.917" cy="33.429" r="1.892"/>
	</g>
	<g>
		<circle fill="#FFFFFF" cx="178.962" cy="33.429" r="1.892"/>
	</g>
	<g>
		<circle fill="#FFFFFF" cx="184.008" cy="33.429" r="1.892"/>
	</g>
	<g>
		<circle fill="#FFFFFF" cx="189.054" cy="33.429" r="1.892"/>
	</g>
	<g>
		<circle fill="#FFFFFF" cx="194.1" cy="33.429" r="1.892"/>
	</g>
	<g>
		<circle fill="#FFFFFF" cx="103.273" cy="38.475" r="1.892"/>
	</g>
	<g>
		<circle fill="#FFFFFF" cx="108.319" cy="38.475" r="1.892"/>
	</g>
	<g>
		<circle fill="#FFFFFF" cx="113.365" cy="38.475" r="1.892"/>
	</g>
	<g>
		<circle fill="#FFFFFF" cx="118.411" cy="38.475" r="1.892"/>
	</g>
	<g>
		<circle fill="#FFFFFF" cx="123.457" cy="38.475" r="1.892"/>
	</g>
	<g>
		<circle fill="#FFFFFF" cx="128.503" cy="38.475" r="1.892"/>
	</g>
	<g>
		<circle fill="#FFFFFF" cx="133.549" cy="38.475" r="1.892"/>
	</g>
	<g>
		<circle fill="#FFFFFF" cx="138.595" cy="38.475" r="1.892"/>
	</g>
	<g>
		<circle fill="#FFFFFF" cx="143.641" cy="38.475" r="1.892"/>
	</g>
	<g>
		<circle fill="#FFFFFF" cx="148.687" cy="38.475" r="1.892"/>
	</g>
	<g>
		<circle fill="#FFFFFF" cx="153.733" cy="38.475" r="1.892"/>
	</g>
	<g>
		<circle fill="#FFFFFF" cx="158.779" cy="38.475" r="1.892"/>
	</g>
	<g>
		<circle fill="#FFFFFF" cx="163.824" cy="38.475" r="1.892"/>
	</g>
	<g>
		<circle fill="#FFFFFF" cx="168.87" cy="38.475" r="1.892"/>
	</g>
	<g>
		<circle fill="#FFFFFF" cx="173.917" cy="38.475" r="1.892"/>
	</g>
	<g>
		<circle fill="#FFFFFF" cx="178.962" cy="38.475" r="1.892"/>
	</g>
	<g>
		<circle fill="#FFFFFF" cx="103.273" cy="43.521" r="1.892"/>
	</g>
	<g>
		<circle fill="#FFFFFF" cx="108.319" cy="43.521" r="1.892"/>
	</g>
	<g>
		<circle fill="#FFFFFF" cx="113.365" cy="43.521" r="1.892"/>
	</g>
	<g>
		<circle fill="#FFFFFF" cx="118.411" cy="43.521" r="1.892"/>
	</g>
	<g>
		<circle fill="#FFFFFF" cx="123.457" cy="43.521" r="1.892"/>
	</g>
	<g>
		<circle fill="#FFFFFF" cx="128.503" cy="43.521" r="1.892"/>
	</g>
	<g>
		<circle fill="#FFFFFF" cx="133.549" cy="43.521" r="1.892"/>
	</g>
	<g>
		<circle fill="#FFFFFF" cx="138.595" cy="43.521" r="1.892"/>
	</g>
	<g>
		<circle fill="#FFFFFF" cx="143.641" cy="43.521" r="1.892"/>
	</g>
	<g>
		<circle fill="#FFFFFF" cx="148.687" cy="43.521" r="1.892"/>
	</g>
	<g>
		<circle fill="#FFFFFF" cx="153.733" cy="43.521" r="1.892"/>
	</g>
	<g>
		<circle fill="#FFFFFF" cx="158.779" cy="43.521" r="1.892"/>
	</g>
	<g>
		<circle fill="#FFFFFF" cx="163.824" cy="43.521" r="1.892"/>
	</g>
	<g>
		<circle fill="#FFFFFF" cx="168.87" cy="43.521" r="1.892"/>
	</g>
	<g>
		<circle fill="#FFFFFF" cx="173.917" cy="43.521" r="1.892"/>
	</g>
	<g>
		<circle fill="#FFFFFF" cx="103.273" cy="48.567" r="1.892"/>
	</g>
	<g>
		<circle fill="#FFFFFF" cx="108.319" cy="48.567" r="1.892"/>
	</g>
	<g>
		<circle fill="#FFFFFF" cx="113.365" cy="48.567" r="1.892"/>
	</g>
	<g>
		<circle fill="#FFFFFF" cx="118.411" cy="48.567" r="1.892"/>
	</g>
	<g>
		<circle fill="#FFFFFF" cx="123.457" cy="48.567" r="1.892"/>
	</g>
	<g>
		<circle fill="#FFFFFF" cx="128.503" cy="48.567" r="1.892"/>
	</g>
	<g>
		<circle fill="#FFFFFF" cx="133.549" cy="48.567" r="1.892"/>
	</g>
	<g>
		<circle fill="#FFFFFF" cx="138.595" cy="48.567" r="1.892"/>
	</g>
	<g>
		<circle fill="#FFFFFF" cx="143.641" cy="48.567" r="1.892"/>
	</g>
	<g>
		<circle fill="#FFFFFF" cx="148.687" cy="48.567" r="1.892"/>
	</g>
	<g>
		<circle fill="#FFFFFF" cx="153.733" cy="48.567" r="1.892"/>
	</g>
	<g>
		<circle fill="#FFFFFF" cx="158.779" cy="48.567" r="1.892"/>
	</g>
	<g>
		<circle fill="#FFFFFF" cx="163.824" cy="48.567" r="1.892"/>
	</g>
	<g>
		<circle fill="#FFFFFF" cx="168.87" cy="48.567" r="1.892"/>
	</g>
	<g>
		<circle fill="#FFFFFF" cx="108.319" cy="53.613" r="1.892"/>
	</g>
	<g>
		<circle fill="#FFFFFF" cx="113.365" cy="53.613" r="1.892"/>
	</g>
	<g>
		<circle fill="#FFFFFF" cx="118.411" cy="53.613" r="1.892"/>
	</g>
	<g>
		<circle fill="#FFFFFF" cx="123.457" cy="53.613" r="1.892"/>
	</g>
	<g>
		<circle fill="#FFFFFF" cx="128.503" cy="53.613" r="1.892"/>
	</g>
	<g>
		<circle fill="#FFFFFF" cx="133.549" cy="53.613" r="1.892"/>
	</g>
	<g>
		<circle fill="#FFFFFF" cx="138.595" cy="53.613" r="1.892"/>
	</g>
	<g>
		<circle fill="#FFFFFF" cx="143.641" cy="53.613" r="1.892"/>
	</g>
	<g>
		<circle fill="#FFFFFF" cx="148.687" cy="53.613" r="1.892"/>
	</g>
	<g>
		<circle fill="#FFFFFF" cx="153.733" cy="53.613" r="1.892"/>
	</g>
	<g>
		<circle fill="#FFFFFF" cx="158.779" cy="53.613" r="1.892"/>
	</g>
	<g>
		<circle fill="#FFFFFF" cx="163.824" cy="53.613" r="1.892"/>
	</g>
	<g>
		<circle fill="#FFFFFF" cx="108.319" cy="58.659" r="1.892"/>
	</g>
	<g>
		<circle fill="#FFFFFF" cx="113.365" cy="58.659" r="1.892"/>
	</g>
	<g>
		<circle fill="#FFFFFF" cx="118.411" cy="58.659" r="1.892"/>
	</g>
	<g>
		<circle fill="#FFFFFF" cx="123.457" cy="58.659" r="1.892"/>
	</g>
	<g>
		<circle fill="#FFFFFF" cx="128.503" cy="58.659" r="1.892"/>
	</g>
	<g>
		<circle fill="#FFFFFF" cx="133.549" cy="58.659" r="1.892"/>
	</g>
	<g>
		<circle fill="#FFFFFF" cx="138.595" cy="58.659" r="1.892"/>
	</g>
	<g>
		<circle fill="#FFFFFF" cx="143.641" cy="58.659" r="1.892"/>
	</g>
	<g>
		<circle fill="#FFFFFF" cx="148.687" cy="58.659" r="1.892"/>
	</g>
	<g>
		<circle fill="#FFFFFF" cx="153.733" cy="58.659" r="1.892"/>
	</g>
	<g>
		<circle fill="#FFFFFF" cx="158.779" cy="58.659" r="1.892"/>
	</g>
	<g>
		<circle fill="#FFFFFF" cx="108.319" cy="63.705" r="1.892"/>
	</g>
	<g>
		<circle fill="#FFFFFF" cx="113.365" cy="63.705" r="1.892"/>
	</g>
	<g>
		<circle fill="#FFFFFF" cx="118.411" cy="63.705" r="1.892"/>
	</g>
	<g>
		<circle fill="#FFFFFF" cx="123.457" cy="63.705" r="1.892"/>
	</g>
	<g>
		<circle fill="#FFFFFF" cx="128.503" cy="63.705" r="1.892"/>
	</g>
	<g>
		<circle fill="#FFFFFF" cx="133.549" cy="63.705" r="1.892"/>
	</g>
	<g>
		<circle fill="#FFFFFF" cx="158.779" cy="63.705" r="1.892"/>
	</g>
	<g>
		<circle fill="#FFFFFF" cx="113.365" cy="68.751" r="1.892"/>
	</g>
	<g>
		<circle fill="#FFFFFF" cx="118.411" cy="68.751" r="1.892"/>
	</g>
	<g>
		<circle fill="#FFFFFF" cx="123.457" cy="68.751" r="1.892"/>
	</g>
	<g>
		<circle fill="#FFFFFF" cx="128.503" cy="68.751" r="1.892"/>
	</g>
	<g>
		<circle fill="#FFFFFF" cx="133.549" cy="68.751" r="1.892"/>
	</g>
	<g>
		<circle fill="#FFFFFF" cx="158.779" cy="68.751" r="1.892"/>
	</g>
	<g>
		<circle fill="#FFFFFF" cx="113.365" cy="73.797" r="1.892"/>
	</g>
	<g>
		<circle fill="#FFFFFF" cx="118.411" cy="73.797" r="1.892"/>
	</g>
	<g>
		<circle fill="#FFFFFF" cx="123.457" cy="73.797" r="1.892"/>
	</g>
	<g>
		<circle fill="#FFFFFF" cx="128.503" cy="73.797" r="1.892"/>
	</g>
	<g>
		<circle fill="#FFFFFF" cx="153.733" cy="73.797" r="1.892"/>
	</g>
	<g>
		<circle fill="#FFFFFF" cx="158.779" cy="73.797" r="1.892"/>
	</g>
	<g>
		<circle fill="#FFFFFF" cx="118.411" cy="78.843" r="1.892"/>
	</g>
	<g>
		<circle fill="#FFFFFF" cx="123.457" cy="78.843" r="1.892"/>
	</g>
	<g>
		<circle fill="#FFFFFF" cx="128.503" cy="78.843" r="1.892"/>
	</g>
	<g>
		<circle fill="#FFFFFF" cx="133.549" cy="78.843" r="1.892"/>
	</g>
	<g>
		<circle fill="#FFFFFF" cx="143.641" cy="78.843" r="1.892"/>
	</g>
	<g>
		<circle fill="#FFFFFF" cx="163.824" cy="78.843" r="1.892"/>
	</g>
	<g>
		<circle fill="#FFFFFF" cx="168.87" cy="78.843" r="1.892"/>
	</g>
	<g>
		<circle fill="#FFFFFF" cx="173.917" cy="78.843" r="1.892"/>
	</g>
	<g>
		<circle fill="#FFFFFF" cx="123.457" cy="83.889" r="1.892"/>
	</g>
	<g>
		<circle fill="#FFFFFF" cx="128.503" cy="83.889" r="1.892"/>
	</g>
	<g>
		<circle fill="#FFFFFF" cx="133.549" cy="83.889" r="1.892"/>
	</g>
	<g>
		<circle fill="#FFFFFF" cx="138.595" cy="83.889" r="1.892"/>
	</g>
	<g>
		<circle fill="#FFFFFF" cx="143.641" cy="83.889" r="1.892"/>
	</g>
	<g>
		<circle fill="#FFFFFF" cx="138.595" cy="88.935" r="1.892"/>
	</g>
	<g>
		<circle fill="#FFFFFF" cx="143.641" cy="88.935" r="1.892"/>
	</g>
	<g>
		<circle fill="#FFFFFF" cx="148.687" cy="88.935" r="1.892"/>
	</g>
	<g>
		<circle fill="#FFFFFF" cx="148.687" cy="93.98" r="1.892"/>
	</g>
	<g>
		<circle fill="#FFFFFF" cx="168.87" cy="93.98" r="1.892"/>
	</g>
	<g>
		<circle fill="#FFFFFF" cx="153.733" cy="99.026" r="1.892"/>
	</g>
	<g>
		<circle fill="#FFFFFF" cx="158.779" cy="99.026" r="1.892"/>
	</g>
	<g>
		<circle fill="#FFFFFF" cx="163.824" cy="99.026" r="1.892"/>
	</g>
	<g>
		<circle fill="#FFFFFF" cx="168.87" cy="99.026" r="1.892"/>
	</g>
	<g>
		<circle fill="#FFFFFF" cx="173.917" cy="99.026" r="1.892"/>
	</g>
	<g>
		<circle fill="#FFFFFF" cx="178.962" cy="99.026" r="1.892"/>
	</g>
	<g>
		<circle fill="#FFFFFF" cx="184.008" cy="99.026" r="1.892"/>
	</g>
	<g>
		<circle fill="#FFFFFF" cx="163.824" cy="104.072" r="1.892"/>
	</g>
	<g>
		<circle fill="#FFFFFF" cx="168.87" cy="104.072" r="1.892"/>
	</g>
	<g>
		<circle fill="#FFFFFF" cx="173.917" cy="104.072" r="1.892"/>
	</g>
	<g>
		<circle fill="#FFFFFF" cx="178.962" cy="104.072" r="1.892"/>
	</g>
	<g>
		<circle fill="#FFFFFF" cx="184.008" cy="104.072" r="1.892"/>
	</g>
	<g>
		<circle fill="#FFFFFF" cx="189.054" cy="104.072" r="1.892"/>
	</g>
	<g>
		<circle fill="#FFFFFF" cx="194.1" cy="104.072" r="1.892"/>
	</g>
	<g>
		<circle fill="#FFFFFF" cx="158.779" cy="109.118" r="1.892"/>
	</g>
	<g>
		<circle fill="#FFFFFF" cx="163.824" cy="109.118" r="1.892"/>
	</g>
	<g>
		<circle fill="#FFFFFF" cx="168.87" cy="109.118" r="1.892"/>
	</g>
	<g>
		<circle fill="#FFFFFF" cx="173.917" cy="109.118" r="1.892"/>
	</g>
	<g>
		<circle fill="#FFFFFF" cx="178.962" cy="109.118" r="1.892"/>
	</g>
	<g>
		<circle fill="#FFFFFF" cx="184.008" cy="109.118" r="1.892"/>
	</g>
	<g>
		<circle fill="#FFFFFF" cx="189.054" cy="109.118" r="1.892"/>
	</g>
	<g>
		<circle fill="#FFFFFF" cx="194.1" cy="109.118" r="1.892"/>
	</g>
	<g>
		<circle fill="#FFFFFF" cx="199.146" cy="109.118" r="1.892"/>
	</g>
	<g>
		<circle fill="#FFFFFF" cx="158.779" cy="114.164" r="1.892"/>
	</g>
	<g>
		<circle fill="#FFFFFF" cx="163.824" cy="114.164" r="1.892"/>
	</g>
	<g>
		<circle fill="#FFFFFF" cx="168.87" cy="114.164" r="1.892"/>
	</g>
	<g>
		<circle fill="#FFFFFF" cx="173.917" cy="114.164" r="1.892"/>
	</g>
	<g>
		<circle fill="#FFFFFF" cx="178.962" cy="114.164" r="1.892"/>
	</g>
	<g>
		<circle fill="#FFFFFF" cx="184.008" cy="114.164" r="1.892"/>
	</g>
	<g>
		<circle fill="#FFFFFF" cx="189.054" cy="114.164" r="1.892"/>
	</g>
	<g>
		<circle fill="#FFFFFF" cx="194.1" cy="114.164" r="1.892"/>
	</g>
	<g>
		<circle fill="#FFFFFF" cx="199.146" cy="114.164" r="1.892"/>
	</g>
	<g>
		<circle fill="#FFFFFF" cx="158.779" cy="119.211" r="1.892"/>
	</g>
	<g>
		<circle fill="#FFFFFF" cx="163.824" cy="119.211" r="1.892"/>
	</g>
	<g>
		<circle fill="#FFFFFF" cx="168.87" cy="119.211" r="1.892"/>
	</g>
	<g>
		<circle fill="#FFFFFF" cx="173.917" cy="119.211" r="1.892"/>
	</g>
	<g>
		<circle fill="#FFFFFF" cx="178.962" cy="119.211" r="1.892"/>
	</g>
	<g>
		<circle fill="#FFFFFF" cx="184.008" cy="119.211" r="1.892"/>
	</g>
	<g>
		<circle fill="#FFFFFF" cx="189.054" cy="119.211" r="1.892"/>
	</g>
	<g>
		<circle fill="#FFFFFF" cx="194.1" cy="119.211" r="1.892"/>
	</g>
	<g>
		<circle fill="#FFFFFF" cx="199.146" cy="119.211" r="1.892"/>
	</g>
	<g>
		<circle fill="#FFFFFF" cx="158.779" cy="124.257" r="1.892"/>
	</g>
	<g>
		<circle fill="#FFFFFF" cx="163.824" cy="124.257" r="1.892"/>
	</g>
	<g>
		<circle fill="#FFFFFF" cx="168.87" cy="124.257" r="1.892"/>
	</g>
	<g>
		<circle fill="#FFFFFF" cx="173.917" cy="124.257" r="1.892"/>
	</g>
	<g>
		<circle fill="#FFFFFF" cx="178.962" cy="124.257" r="1.892"/>
	</g>
	<g>
		<circle fill="#FFFFFF" cx="184.008" cy="124.257" r="1.892"/>
	</g>
	<g>
		<circle fill="#FFFFFF" cx="189.054" cy="124.257" r="1.892"/>
	</g>
	<g>
		<circle fill="#FFFFFF" cx="194.1" cy="124.257" r="1.892"/>
	</g>
	<g>
		<circle fill="#FFFFFF" cx="199.146" cy="124.257" r="1.892"/>
	</g>
	<g>
		<circle fill="#FFFFFF" cx="158.779" cy="129.303" r="1.892"/>
	</g>
	<g>
		<circle fill="#FFFFFF" cx="163.824" cy="129.303" r="1.892"/>
	</g>
	<g>
		<circle fill="#FFFFFF" cx="168.87" cy="129.303" r="1.892"/>
	</g>
	<g>
		<circle fill="#FFFFFF" cx="173.917" cy="129.303" r="1.892"/>
	</g>
	<g>
		<circle fill="#FFFFFF" cx="178.962" cy="129.303" r="1.892"/>
	</g>
	<g>
		<circle fill="#FFFFFF" cx="184.008" cy="129.303" r="1.892"/>
	</g>
	<g>
		<circle fill="#FFFFFF" cx="189.054" cy="129.303" r="1.892"/>
	</g>
	<g>
		<circle fill="#FFFFFF" cx="194.1" cy="129.303" r="1.892"/>
	</g>
	<g>
		<circle fill="#FFFFFF" cx="199.146" cy="129.303" r="1.892"/>
	</g>
</g>
</svg>
