<?xml version="1.0" encoding="utf-8"?>
<!-- Generator: Adobe Illustrator 16.0.0, SVG Export Plug-In . SVG Version: 6.00 Build 0)  -->
<!DOCTYPE svg PUBLIC "-//W3C//DTD SVG 1.1//EN" "http://www.w3.org/Graphics/SVG/1.1/DTD/svg11.dtd">
<svg version="1.1" id="livetype" xmlns="http://www.w3.org/2000/svg" xmlns:xlink="http://www.w3.org/1999/xlink" x="0px" y="0px"
	 width="129.371px" height="38.332px" viewBox="0 43.166 129.371 38.332" enable-background="new 0 43.166 129.371 38.332"
	 xml:space="preserve">
<path d="M124.58,81.498H4.791C2.108,81.498,0,79.39,0,76.707v-28.75c0-2.683,2.108-4.791,4.791-4.791H124.58
	c2.682,0,4.791,2.108,4.791,4.791v28.75C129.371,79.39,127.262,81.498,124.58,81.498z"/>
<path d="M124.58,43.933c2.203,0,4.023,1.821,4.023,4.024v28.75c0,2.203-1.82,4.024-4.023,4.024H4.791
	c-2.203,0-4.024-1.821-4.024-4.024v-28.75c0-2.203,1.821-4.024,4.024-4.024H124.58 M124.58,43.166H4.791
	C2.108,43.166,0,45.37,0,47.957v28.75c0,2.683,2.108,4.791,4.791,4.791H124.58c2.682,0,4.791-2.108,4.791-4.791v-28.75
	C129.371,45.37,127.262,43.166,124.58,43.166z"/>
<path fill="#FFFFFF" d="M45.423,52.94c0,0.767-0.191,1.438-0.671,1.917c-0.574,0.574-1.245,0.862-2.108,0.862
	c-0.862,0-1.533-0.288-2.107-0.862c-0.575-0.575-0.863-1.246-0.863-2.107c0-0.863,0.288-1.534,0.863-2.109
	c0.574-0.574,1.245-0.862,2.107-0.862c0.384,0,0.768,0.096,1.15,0.288c0.384,0.191,0.671,0.383,0.862,0.67l-0.479,0.479
	c-0.384-0.479-0.862-0.671-1.534-0.671c-0.574,0-1.149,0.191-1.533,0.671c-0.479,0.383-0.67,0.958-0.67,1.629
	s0.191,1.245,0.67,1.629c0.479,0.384,0.959,0.671,1.533,0.671c0.672,0,1.15-0.191,1.63-0.671c0.287-0.288,0.479-0.671,0.479-1.149
	h-2.108v-0.767h2.779V52.94L45.423,52.94z M49.831,50.545h-2.588v1.82h2.396v0.671h-2.396v1.821h2.588v0.767h-3.354v-5.75h3.354
	V50.545z M52.994,55.624h-0.767v-5.079h-1.63v-0.671h4.025v0.671h-1.629V55.624z M57.402,55.624v-5.75h0.767v5.75H57.402z
	 M61.428,55.624H60.66v-5.079h-1.629v-0.671h3.93v0.671h-1.629v5.079H61.428z M70.531,54.857c-0.574,0.574-1.246,0.862-2.109,0.862
	c-0.861,0-1.533-0.288-2.107-0.862c-0.574-0.575-0.863-1.246-0.863-2.107c0-0.863,0.289-1.534,0.863-2.109
	c0.574-0.574,1.246-0.862,2.107-0.862c0.863,0,1.535,0.288,2.109,0.862c0.574,0.575,0.863,1.246,0.863,2.109
	C71.395,53.611,71.105,54.282,70.531,54.857z M66.889,54.378c0.385,0.384,0.959,0.671,1.533,0.671c0.576,0,1.15-0.191,1.535-0.671
	c0.383-0.383,0.67-0.958,0.67-1.628c0-0.672-0.191-1.246-0.67-1.63c-0.385-0.384-0.959-0.671-1.535-0.671
	c-0.574,0-1.148,0.191-1.533,0.671c-0.383,0.384-0.67,0.958-0.67,1.63C66.219,53.42,66.41,53.995,66.889,54.378z M72.447,55.624
	v-5.75h0.863l2.779,4.504v-4.504h0.766v5.75H76.09l-2.971-4.696v4.696H72.447L72.447,55.624z"/>
<path fill="#FFFFFF" d="M65.26,64.057c-2.299,0-4.119,1.725-4.119,4.121c0,2.3,1.82,4.12,4.119,4.12c2.301,0,4.121-1.725,4.121-4.12
	C69.381,65.686,67.561,64.057,65.26,64.057z M65.26,70.573c-1.246,0-2.299-1.054-2.299-2.491c0-1.438,1.053-2.491,2.299-2.491
	s2.301,0.958,2.301,2.491C67.561,69.52,66.506,70.573,65.26,70.573z M56.348,64.057c-2.3,0-4.12,1.725-4.12,4.121
	c0,2.3,1.82,4.12,4.12,4.12c2.301,0,4.121-1.725,4.121-4.12C60.469,65.686,58.648,64.057,56.348,64.057z M56.348,70.573
	c-1.246,0-2.3-1.054-2.3-2.491c0-1.438,1.054-2.491,2.3-2.491s2.301,0.958,2.301,2.491C58.648,69.52,57.594,70.573,56.348,70.573z
	 M45.711,65.303v1.725h4.12c-0.096,0.959-0.479,1.726-0.958,2.204c-0.575,0.575-1.533,1.246-3.162,1.246
	c-2.588,0-4.505-2.013-4.505-4.6c0-2.588,2.013-4.601,4.505-4.601c1.342,0,2.396,0.575,3.162,1.246l1.245-1.246
	c-1.054-0.957-2.396-1.725-4.312-1.725c-3.45,0-6.421,2.875-6.421,6.325s2.971,6.324,6.421,6.324c1.916,0,3.258-0.574,4.408-1.82
	c1.149-1.15,1.533-2.779,1.533-4.024c0-0.384,0-0.767-0.096-1.055H45.711z M89.219,66.644c-0.385-0.958-1.342-2.587-3.451-2.587
	c-2.107,0-3.832,1.629-3.832,4.121c0,2.3,1.725,4.12,4.023,4.12c1.822,0,2.971-1.149,3.355-1.82l-1.342-0.958
	c-0.48,0.671-1.055,1.149-2.014,1.149c-0.957,0-1.533-0.383-2.012-1.246l5.463-2.3L89.219,66.644L89.219,66.644z M83.66,67.986
	c0-1.533,1.246-2.396,2.107-2.396c0.672,0,1.342,0.383,1.533,0.862L83.66,67.986L83.66,67.986z M79.156,71.915h1.82V59.937h-1.82
	V71.915z M76.281,64.92c-0.48-0.479-1.246-0.959-2.205-0.959c-2.012,0-3.928,1.82-3.928,4.121c0,2.3,1.82,4.024,3.928,4.024
	c0.959,0,1.725-0.479,2.109-0.958h0.096v0.575c0,1.533-0.863,2.396-2.205,2.396c-1.055,0-1.82-0.767-2.012-1.438l-1.533,0.671
	c0.479,1.055,1.629,2.396,3.641,2.396c2.109,0,3.834-1.245,3.834-4.216v-7.284h-1.725V64.92L76.281,64.92z M74.172,70.573
	c-1.244,0-2.299-1.054-2.299-2.491c0-1.438,1.055-2.491,2.299-2.491c1.246,0,2.205,1.053,2.205,2.491
	C76.377,69.52,75.418,70.573,74.172,70.573z M97.555,59.937h-4.313v11.979h1.822v-4.504h2.49c2.014,0,3.93-1.438,3.93-3.737
	S99.568,59.937,97.555,59.937z M97.65,65.686h-2.586v-4.12h2.586c1.342,0,2.109,1.149,2.109,2.013
	C99.664,64.632,98.896,65.686,97.65,65.686z M108.672,63.961c-1.342,0-2.684,0.575-3.162,1.82l1.629,0.672
	c0.383-0.672,0.957-0.862,1.629-0.862c0.957,0,1.82,0.574,1.916,1.532v0.097c-0.287-0.192-1.053-0.479-1.82-0.479
	c-1.725,0-3.449,0.958-3.449,2.683c0,1.63,1.438,2.684,2.971,2.684c1.246,0,1.82-0.574,2.299-1.149h0.096v0.958h1.725v-4.6
	C112.313,65.207,110.684,63.961,108.672,63.961L108.672,63.961z M108.48,70.573c-0.576,0-1.438-0.287-1.438-1.054
	c0-0.959,1.053-1.246,1.916-1.246c0.766,0,1.15,0.191,1.629,0.384C110.396,69.807,109.438,70.573,108.48,70.573z M118.543,64.248
	l-2.014,5.175h-0.096l-2.107-5.175h-1.918l3.162,7.284l-1.82,4.024h1.82l4.889-11.309H118.543L118.543,64.248z M102.441,71.915
	h1.822V59.937h-1.822V71.915z"/>
<g>
	<path fill="#FFFFFF" d="M9.966,50.354c-0.287,0.287-0.383,0.767-0.383,1.342v21.178c0,0.575,0.191,1.055,0.479,1.342l0.096,0.097
		L22.04,62.428v-0.191L9.966,50.354z"/>
	<path fill="#FFFFFF" d="M25.874,66.453l-3.93-3.93v-0.287l3.93-3.93l0.096,0.096l4.695,2.684c1.342,0.767,1.342,2.013,0,2.779
		L25.874,66.453z"/>
	<path fill="#FFFFFF" d="M25.97,66.357l-4.025-4.025L9.966,74.312c0.479,0.479,1.15,0.479,2.013,0.096L25.97,66.357"/>
	<path fill="#FFFFFF" d="M25.97,58.307l-13.991-7.953c-0.862-0.479-1.533-0.384-2.013,0.096l11.979,11.883L25.97,58.307
		L25.97,58.307z"/>
	<path fill="#FFFFFF" d="M25.874,66.261l-13.896,7.858c-0.767,0.479-1.438,0.383-1.916,0l-0.097,0.096l0.097,0.097
		c0.479,0.383,1.149,0.479,1.916,0L25.874,66.261z"/>
	<path fill="#FFFFFF" d="M9.966,74.119c-0.287-0.287-0.383-0.767-0.383-1.342v0.096c0,0.575,0.191,1.055,0.479,1.342v-0.096H9.966
		L9.966,74.119z M30.665,63.578l-4.791,2.683l0.096,0.097l4.695-2.684c0.671-0.384,0.959-0.862,0.959-1.342
		C31.624,62.812,31.24,63.194,30.665,63.578z"/>
	<path fill="#FFFFFF" d="M11.979,50.449l18.687,10.637c0.575,0.384,0.959,0.767,0.959,1.246c0-0.479-0.288-0.958-0.959-1.342
		L11.979,50.354c-1.342-0.767-2.396-0.191-2.396,1.342v0.096C9.583,50.354,10.637,49.683,11.979,50.449z"/>
</g>
</svg>
