<?xml version="1.0" standalone="no"?>
<!DOCTYPE svg PUBLIC "-//W3C//DTD SVG 1.1//EN" "http://www.w3.org/Graphics/SVG/1.1/DTD/svg11.dtd" >
<svg xmlns="http://www.w3.org/2000/svg" xmlns:xlink="http://www.w3.org/1999/xlink" version="1.1">
<metadata></metadata>
<defs>
<font id="mustica_prosemi_bold" horiz-adv-x="1249" >
<font-face units-per-em="2048" ascent="1638" descent="-410" />
<missing-glyph horiz-adv-x="528" />
<glyph unicode="^&#x32;" horiz-adv-x="741" d="M63 1503q30 93 109 150t182 57q125 0 206 -76t81 -196q0 -80 -38 -153.5t-122 -156.5l-159 -157h333v-158h-583v131l295 297q56 56 85 100.5t29 94.5q0 52 -35 83t-94 31q-54 0 -92 -30t-55 -84z" />
<glyph unicode="^&#x33;" horiz-adv-x="704" d="M37 1018l143 55q20 -56 61.5 -86.5t96.5 -30.5q64 0 103.5 35t39.5 92q0 60 -41 97t-108 37q-32 0 -53 -9l-76 117l168 213h-281v160h508v-127l-178 -219q99 -14 160 -88t61 -181q0 -126 -85.5 -204t-221.5 -78q-102 0 -182.5 59.5t-114.5 157.5z" />
<glyph unicode="^&#x31;" horiz-adv-x="565" d="M49 1563l248 135h141v-885h-159v698l-160 -88z" />
<glyph unicode="&#xfb01;" horiz-adv-x="1204" d="M33 782v242h172v55q0 416 409 416h84v-233h-63q-96 0 -142.5 -43.5t-46.5 -155.5v-39h639v-1024h-241v782h-398v-782h-241v782h-172zM821 1352q0 59 42 101t102 42t102.5 -42t42.5 -101q0 -60 -42.5 -103t-102.5 -43t-102 43t-42 103z" />
<glyph unicode="&#xfb02;" horiz-adv-x="1210" d="M33 782v242h172v55q0 416 409 416h236v41h242v-1536h-242v1262h-215q-96 0 -142.5 -43.5t-46.5 -155.5v-39h252v-242h-252v-782h-241v782h-172z" />
<glyph unicode="&#xfb03;" horiz-adv-x="1882" d="M33 782v242h172v55q0 416 409 416h84v-233h-63q-96 0 -142.5 -43.5t-46.5 -155.5v-39h437v55q0 416 409 416h84v-233h-63q-96 0 -142.5 -43.5t-46.5 -155.5v-39h639v-1024h-241v782h-398v-782h-241v782h-437v-782h-241v782h-172zM1499 1352q0 59 41.5 101t101.5 42 t103 -42t43 -101q0 -60 -43 -103t-103 -43t-101.5 43t-41.5 103z" />
<glyph unicode="&#xfb04;" horiz-adv-x="1888" d="M33 782v242h172v55q0 416 409 416h84v-233h-63q-96 0 -142.5 -43.5t-46.5 -155.5v-39h437v55q0 416 409 416h236v41h241v-1536h-241v1262h-215q-96 0 -142.5 -43.5t-46.5 -155.5v-39h252v-242h-252v-782h-241v782h-437v-782h-241v782h-172z" />
<glyph horiz-adv-x="0" />
<glyph horiz-adv-x="0" />
<glyph unicode="&#xd;" horiz-adv-x="512" />
<glyph unicode=" "  horiz-adv-x="528" />
<glyph unicode="&#x09;" horiz-adv-x="528" />
<glyph unicode="&#xa0;" horiz-adv-x="528" />
<glyph unicode="!" horiz-adv-x="544" d="M121 131q0 63 44 107.5t107 44.5t107.5 -44.5t44.5 -107.5t-44.5 -107t-107.5 -44t-107 44t-44 107zM152 936v539h241v-539l-26 -512h-191z" />
<glyph unicode="&#x22;" horiz-adv-x="647" d="M74 1294v181h205v-181l-19 -342h-168zM369 1294v181h204v-181l-18 -342h-168z" />
<glyph unicode="#" horiz-adv-x="1302" d="M53 438l39 205h207l37 188h-207l41 205h205l63 336h209l-63 -336h252l63 336h209l-64 -336h205l-39 -205h-206l-37 -188h207l-39 -205h-207l-66 -336h-207l66 336h-254l-66 -336h-206l65 336h-207zM506 643h254l37 188h-254z" />
<glyph unicode="$" horiz-adv-x="1275" d="M37 217l164 176q133 -124 315 -155v444q-70 22 -124 44.5t-108.5 57t-90 75.5t-58 98t-22.5 126q0 162 109.5 267.5t293.5 132.5v176h242v-176q124 -20 233 -78t185 -145l-172 -170q-97 111 -246 139v-365q103 -31 179.5 -67t141.5 -88t99 -124t34 -163 q0 -171 -127.5 -288t-326.5 -146v-172h-242v172q-278 37 -479 229zM356 1085q0 -50 41.5 -85t143.5 -70v315q-90 -12 -137.5 -54t-47.5 -106zM758 236q95 15 154 64.5t59 115.5q0 63 -48 105.5t-165 82.5v-368z" />
<glyph unicode="%" horiz-adv-x="1810" d="M66 1120q0 156 110 265.5t266 109.5q155 0 265 -110t110 -265q0 -157 -110 -267t-265 -110q-157 0 -266.5 110t-109.5 267zM260 1120q0 -75 53.5 -128.5t128.5 -53.5q74 0 127.5 53.5t53.5 128.5q0 73 -53.5 126.5t-127.5 53.5q-75 0 -128.5 -53t-53.5 -127zM303 0 l1002 1475h200l-999 -1475h-203zM993 356q0 155 110 265t267 110q155 0 265 -110t110 -265q0 -156 -109.5 -266t-265.5 -110q-157 0 -267 109.5t-110 266.5zM1190 356q0 -75 52.5 -128.5t127.5 -53.5q74 0 127 53.5t53 128.5q0 74 -53.5 127.5t-126.5 53.5 q-75 0 -127.5 -53.5t-52.5 -127.5z" />
<glyph unicode="&#x26;" horiz-adv-x="1400" d="M66 397q0 272 299 400q-129 167 -129 319q0 176 117.5 277.5t295.5 101.5q180 0 297 -100t117 -279q0 -75 -25.5 -135.5t-74 -105.5t-104.5 -77.5t-132 -62.5q16 -16 44 -43t40 -39l217 -213q49 87 55 197l220 -37q-9 -179 -107 -330l156 -155l-154 -166l-164 164 q-185 -136 -440 -136q-240 0 -384 113.5t-144 306.5zM313 412q0 -96 78.5 -150.5t210.5 -54.5q151 0 262 78l-229 225q-12 12 -60 58.5t-75 74.5q-88 -44 -137.5 -97t-49.5 -134zM475 1110q0 -98 111 -229q118 53 176.5 103.5t58.5 125.5q0 73 -50.5 116.5t-121.5 43.5 q-72 0 -123 -43t-51 -117z" />
<glyph unicode="'" horiz-adv-x="356" d="M74 1294v181h209v-181l-19 -342h-172z" />
<glyph unicode="(" horiz-adv-x="636" d="M96 676q0 274 65.5 527t190.5 435h269q-144 -192 -215.5 -441.5t-71.5 -520.5t71.5 -521t215.5 -442h-269q-125 182 -190.5 435.5t-65.5 527.5z" />
<glyph unicode=")" horiz-adv-x="636" d="M16 -287q144 192 215.5 442t71.5 521t-71.5 520.5t-215.5 441.5h269q125 -182 190.5 -435t65.5 -527t-65.5 -527.5t-190.5 -435.5h-269z" />
<glyph unicode="*" horiz-adv-x="858" d="M57 1149l47 147l82 -26l179 -74l-13 193v86h154v-86l-12 -193l178 74l82 26l47 -147l-82 -27l-187 -47l123 -147l52 -70l-125 -90l-52 70l-100 161l-102 -161l-52 -70l-124 90l51 70l123 147l-187 47z" />
<glyph unicode="+" horiz-adv-x="1050" d="M86 616v242h320v320h241v-320h318v-242h-318v-317h-241v317h-320z" />
<glyph unicode="," horiz-adv-x="440" d="M66 -303l40 555h248l-102 -555h-186z" />
<glyph unicode="-" horiz-adv-x="890" d="M123 412v241h645v-241h-645z" />
<glyph unicode="." horiz-adv-x="516" d="M106 131q0 63 44.5 107.5t107.5 44.5t107.5 -44.5t44.5 -107.5t-44.5 -107t-107.5 -44t-107.5 44t-44.5 107z" />
<glyph unicode="/" horiz-adv-x="1122" d="M0 -225l893 1884h229l-893 -1884h-229z" />
<glyph unicode="0" horiz-adv-x="1294" d="M66 737q0 355 154.5 556.5t426.5 201.5q273 0 427.5 -201.5t154.5 -556.5t-154 -556t-428 -201q-272 0 -426.5 201t-154.5 556zM307 737q0 -255 86.5 -385.5t253.5 -130.5t253.5 130.5t86.5 385.5t-86.5 385.5t-253.5 130.5t-253.5 -130.5t-86.5 -385.5z" />
<glyph unicode="1" horiz-adv-x="757" d="M29 1249l411 226h211v-1475h-241v1190l-275 -154z" />
<glyph unicode="2" horiz-adv-x="1112" d="M51 1149q47 155 179 250.5t300 95.5q206 0 344 -130t138 -323q0 -133 -62.5 -253.5t-204.5 -262.5l-286 -284h579v-242h-962v203l497 493q95 93 146 170.5t51 167.5q0 95 -68 157t-174 62q-92 0 -159.5 -52t-92.5 -142z" />
<glyph unicode="3" horiz-adv-x="1067" d="M16 330l222 98q34 -100 108 -156.5t172 -56.5q117 0 190.5 66t73.5 170q0 109 -76 177t-198 68q-50 0 -88 -14l-115 172l305 379h-506v242h848v-201l-305 -375q167 -23 272 -146t105 -302q0 -209 -143 -340t-369 -131q-172 0 -305.5 94.5t-190.5 255.5z" />
<glyph unicode="4" horiz-adv-x="1175" d="M37 303v205l504 967h272l-485 -930h401v319h242v-319h168v-242h-168v-303h-242v303h-692z" />
<glyph unicode="5" horiz-adv-x="1073" d="M16 330l222 98q31 -98 102.5 -152.5t171.5 -54.5q122 0 199 71t77 185q0 126 -72 197t-204 71q-55 0 -113.5 -17.5t-101.5 -45.5h-217l61 793h817v-242h-587l-23 -272q90 24 160 24q234 0 378 -139.5t144 -364.5q0 -217 -148 -359t-372 -142q-171 0 -304 94t-190 256z " />
<glyph unicode="6" horiz-adv-x="1126" d="M45 481q0 155 84 291l438 703h281l-295 -486q16 2 49 2q135 0 246 -68t173 -182.5t62 -248.5q0 -141 -69.5 -259t-189 -185.5t-261.5 -67.5t-260.5 65t-188 180t-69.5 256zM287 489q0 -113 79.5 -190.5t196.5 -77.5q115 0 195 77.5t80 190.5q0 112 -79.5 189.5 t-195.5 77.5t-196 -78t-80 -189z" />
<glyph unicode="7" horiz-adv-x="1026" d="M27 1233v242h962v-199l-518 -1276h-260l504 1233h-688z" />
<glyph unicode="8" horiz-adv-x="1173" d="M45 412q0 235 203 346q-164 112 -164 319q0 187 140 302.5t364 115.5q222 0 362 -115.5t140 -302.5q0 -207 -164 -319q202 -111 202 -346q0 -92 -31 -169t-94.5 -136.5t-169 -93t-245.5 -33.5t-246.5 33.5t-170 93t-95 136.5t-31.5 169zM287 424q0 -97 74 -152t227 -55 q151 0 225 55.5t74 151.5q0 98 -83 152.5t-216 54.5q-135 0 -218 -54t-83 -153zM324 1061q0 -90 72.5 -144.5t191.5 -54.5q118 0 190 54.5t72 144.5q0 91 -69 145t-193 54q-125 0 -194.5 -54t-69.5 -145z" />
<glyph unicode="9" horiz-adv-x="1126" d="M45 983q0 215 151 363.5t369 148.5q141 0 259.5 -65t188.5 -180.5t70 -256.5q0 -151 -86 -291l-438 -702h-280l296 485q-16 -2 -51 -2q-134 0 -244.5 69t-172.5 183.5t-62 247.5zM291 987q0 -113 79.5 -190.5t194.5 -77.5q116 0 196.5 77.5t80.5 188.5q0 112 -80.5 190 t-196.5 78q-115 0 -194.5 -77.5t-79.5 -188.5z" />
<glyph unicode=":" horiz-adv-x="516" d="M106 131q0 63 44.5 107.5t107.5 44.5t107.5 -44.5t44.5 -107.5t-44.5 -107t-107.5 -44t-107.5 44t-44.5 107zM106 844q0 63 44.5 107t107.5 44t107.5 -44t44.5 -107t-44.5 -107.5t-107.5 -44.5t-107.5 44.5t-44.5 107.5z" />
<glyph unicode=";" horiz-adv-x="516" d="M96 -291l41 543h228l-103 -543h-166zM106 844q0 63 44.5 107t107.5 44t107.5 -44t44.5 -107t-44.5 -107.5t-107.5 -44.5t-107.5 44.5t-44.5 107.5z" />
<glyph unicode="&#x3c;" horiz-adv-x="1050" d="M80 623v231l891 344v-250l-541 -211l541 -209v-249z" />
<glyph unicode="=" horiz-adv-x="1050" d="M86 408v241h879v-241h-879zM86 825v242h879v-242h-879z" />
<glyph unicode="&#x3e;" horiz-adv-x="1050" d="M80 279v249l541 209l-541 211v250l891 -344v-231z" />
<glyph unicode="?" horiz-adv-x="1114" d="M72 1149q47 154 182 250t305 96q210 0 336.5 -119.5t126.5 -310.5q0 -33 -6.5 -65t-14.5 -56.5t-26 -53t-30 -46t-37.5 -45t-37.5 -39.5t-42 -40t-40 -38q-75 -74 -108.5 -131.5t-34.5 -126.5h-248q3 110 59 199.5t167 195.5q43 41 61.5 60.5t45.5 52.5t37.5 64t10.5 65 q0 88 -56.5 140t-160.5 52q-96 0 -167.5 -53.5t-96.5 -140.5zM373 131q0 63 44 107.5t107 44.5t107.5 -44.5t44.5 -107.5t-44.5 -107t-107.5 -44t-107 44t-44 107z" />
<glyph unicode="@" horiz-adv-x="1662" d="M74 461q0 155 59.5 295t161 241.5t244 161.5t301.5 60q156 0 295.5 -58.5t238.5 -159.5t157 -241.5t58 -298.5q0 -207 -92.5 -344t-251.5 -137q-85 0 -140.5 44.5t-74.5 122.5l-4 17q-42 -50 -108.5 -83.5t-137.5 -33.5q-112 0 -203 56t-141.5 150.5t-50.5 207.5 q0 174 112.5 295t282.5 121q72 0 138 -32.5t108 -82.5v98h195v-584q0 -65 17.5 -94.5t55.5 -29.5q62 0 106 90.5t44 218.5q0 171 -79 311t-218.5 220.5t-308.5 80.5q-171 0 -313.5 -82t-224 -222.5t-81.5 -307.5q0 -143 51 -260.5t140 -194.5t208.5 -118.5t258.5 -41.5 q174 0 313 50l41 -136q-176 -63 -361 -63q-169 0 -314.5 53.5t-252.5 150.5t-168 241.5t-61 318.5zM580 461q0 -91 64 -155t155 -64q92 0 156.5 64t64.5 155q0 92 -64.5 156.5t-156.5 64.5q-91 0 -155 -64.5t-64 -156.5z" />
<glyph unicode="A" horiz-adv-x="1427" d="M20 0l562 1475h264l561 -1475h-260l-117 305h-633l-116 -305h-261zM483 547h461l-229 604z" />
<glyph unicode="B" horiz-adv-x="1310" d="M152 0v1475h632q174 0 295 -113t121 -283q0 -93 -40 -171.5t-113 -131.5q95 -58 147.5 -149.5t52.5 -204.5q0 -181 -128.5 -301.5t-313.5 -120.5h-653zM393 242h412q83 0 142 58.5t59 141.5t-59 142t-142 59h-412v-401zM393 885h395q70 0 120 51.5t50 122.5q0 72 -51 123 t-123 51h-391v-348z" />
<glyph unicode="C" horiz-adv-x="1437" d="M74 737q0 154 60 294.5t161.5 242t241.5 161.5t294 60q162 0 305.5 -64t249.5 -178l-169 -172q-73 81 -173.5 126.5t-212.5 45.5q-140 0 -259 -69t-188 -188t-69 -259t69 -259t188 -188t259 -69q112 0 212.5 45.5t173.5 126.5l169 -172q-107 -113 -250.5 -177t-304.5 -64 q-206 0 -380 101.5t-275.5 275.5t-101.5 380z" />
<glyph unicode="D" horiz-adv-x="1505" d="M152 0v1475h567q204 0 367 -94t254.5 -263t91.5 -381t-91 -380.5t-254 -262.5t-368 -94h-567zM393 242h326q211 0 341 137t130 358t-130 358.5t-341 137.5h-326v-991z" />
<glyph unicode="E" horiz-adv-x="1179" d="M152 0v1475h954v-242h-713v-346h631v-242h-631v-403h713v-242h-954z" />
<glyph unicode="F" horiz-adv-x="1159" d="M152 0v1475h954v-242h-713v-346h631v-242h-631v-645h-241z" />
<glyph unicode="G" horiz-adv-x="1509" d="M74 737q0 159 57 299.5t155.5 241t236 159t292.5 58.5q174 0 331 -71.5t261 -198.5l-172 -170q-70 93 -179.5 145.5t-232.5 52.5q-221 0 -364.5 -146t-143.5 -370t143.5 -370t364.5 -146q185 0 336 96v248h-342v242h584v-602q-116 -109 -267 -167t-311 -58 q-156 0 -294.5 58.5t-238.5 158.5t-158 240.5t-58 299.5z" />
<glyph unicode="H" horiz-adv-x="1462" d="M152 0v1475h241v-588h678v588h242v-1475h-242v645h-678v-645h-241z" />
<glyph unicode="I" horiz-adv-x="544" d="M152 0v1475h241v-1475h-241z" />
<glyph unicode="J" horiz-adv-x="1294" d="M35 305l201 135q57 -103 151 -161t201 -58q144 0 229.5 86.5t85.5 229.5v696h-600v242h842v-938q0 -243 -155 -400t-394 -157q-175 0 -321.5 84.5t-239.5 240.5z" />
<glyph unicode="K" horiz-adv-x="1269" d="M152 0v1475h241v-576l541 576h305l-649 -701l672 -774h-304l-565 645v-645h-241z" />
<glyph unicode="L" horiz-adv-x="1146" d="M152 0v1475h241v-1233h703v-242h-944z" />
<glyph unicode="M" horiz-adv-x="1667" d="M152 0v1475h204l478 -861l477 861h205v-1475h-242v895l-350 -627h-181l-350 627v-895h-241z" />
<glyph unicode="N" horiz-adv-x="1462" d="M152 0v1475h223l696 -1016v1016h242v-1475h-226l-694 1016v-1016h-241z" />
<glyph unicode="O" horiz-adv-x="1662" d="M74 737q0 154 60 294.5t161.5 242t241.5 161.5t294 60t294.5 -60t242 -161.5t161.5 -242t60 -294.5t-60 -294t-161.5 -241.5t-242 -161.5t-294.5 -60q-206 0 -380 101.5t-275.5 275.5t-101.5 380zM315 737q0 -140 69 -259t188 -188t259 -69t259 69t188.5 188t69.5 259 t-69.5 259t-188.5 188t-259 69t-259 -69t-188 -188t-69 -259z" />
<glyph unicode="P" horiz-adv-x="1296" d="M152 0v1475h614q204 0 338.5 -144t134.5 -362t-134.5 -362t-338.5 -144h-373v-463h-241zM393 705h340q121 0 193.5 72t72.5 192q0 121 -71.5 192.5t-192.5 71.5h-342v-528z" />
<glyph unicode="Q" horiz-adv-x="1662" d="M74 737q0 154 60 294.5t161.5 242t241.5 161.5t294 60t294.5 -60t242 -161.5t161.5 -242t60 -294.5q0 -138 -48 -264.5t-134 -226.5l147 -164l-178 -162l-155 170q-178 -110 -390 -110q-206 0 -380 101.5t-275.5 275.5t-101.5 380zM315 737q0 -140 69 -259t188 -188 t259 -69q117 0 220 58l-146 159l180 162l156 -172q107 139 107 309q0 140 -69.5 259t-188.5 188t-259 69t-259 -69t-188 -188t-69 -259z" />
<glyph unicode="R" horiz-adv-x="1337" d="M152 0v1475h647q204 0 338.5 -144t134.5 -362q0 -135 -59 -245.5t-160 -174.5l254 -549h-267l-215 465q-14 -2 -43 -2h-389v-463h-241zM393 705h373q121 0 193.5 72t72.5 192q0 121 -71 192.5t-193 71.5h-375v-528z" />
<glyph unicode="S" horiz-adv-x="1275" d="M37 217l164 176q193 -172 452 -172q139 0 228.5 55.5t89.5 139.5q0 81 -85.5 132t-287.5 109q-58 17 -103 31.5t-97.5 36.5t-91.5 45t-77 55.5t-62 69.5t-39 85t-15 103q0 127 69 221.5t188 142.5t271 48q151 0 295.5 -63.5t239.5 -171.5l-172 -170q-71 79 -170 121 t-209 42q-127 0 -198 -45t-71 -123q0 -65 76.5 -107t269.5 -97q90 -26 158.5 -52t137.5 -65.5t113.5 -86t72.5 -111.5t28 -144q0 -131 -78 -234t-206.5 -157t-282.5 -54q-349 0 -608 240z" />
<glyph unicode="T" horiz-adv-x="1243" d="M39 1233v242h1165v-242h-461v-1233h-241v1233h-463z" />
<glyph unicode="U" horiz-adv-x="1449" d="M152 567v908h241v-908q0 -160 90 -254t242 -94q153 0 242.5 94t89.5 254v908h241v-908q0 -261 -159 -424t-414 -163t-414 163t-159 424z" />
<glyph unicode="V" horiz-adv-x="1339" d="M10 1475h258l402 -1090l403 1090h256l-538 -1475h-242z" />
<glyph unicode="W" horiz-adv-x="2017" d="M10 1475h260l310 -1072l309 1072h237l312 -1072l309 1072h260l-453 -1475h-233l-313 1008l-312 -1008h-233z" />
<glyph unicode="X" horiz-adv-x="1300" d="M23 0l485 758l-461 717h289l315 -492l316 492h286l-458 -717l483 -758h-287l-340 530l-342 -530h-286z" />
<glyph unicode="Y" horiz-adv-x="1294" d="M8 1475h271l368 -711l369 711h270l-518 -983v-492h-242v492z" />
<glyph unicode="Z" horiz-adv-x="1261" d="M100 0v199l713 1034h-674v242h1000v-199l-713 -1034h756v-242h-1082z" />
<glyph unicode="[" horiz-adv-x="612" d="M131 -287v1925h440v-229h-202v-1466h202v-230h-440z" />
<glyph unicode="\" horiz-adv-x="1122" d="M0 1659h229l893 -1884h-229z" />
<glyph unicode="]" horiz-adv-x="612" d="M41 -57h203v1466h-203v229h440v-1925h-440v230z" />
<glyph unicode="^" horiz-adv-x="1128" d="M57 727l402 748h211l401 -748h-250l-258 479l-256 -479h-250z" />
<glyph unicode="_" horiz-adv-x="837" d="M0 -115h838v-241h-838v241z" />
<glyph unicode="`" horiz-adv-x="532" d="M74 1477h227l158 -310h-211z" />
<glyph unicode="a" d="M66 512q0 145 65 267t182 193.5t260 71.5q92 0 177 -41.5t139 -105.5v127h241v-1024h-241v131q-54 -66 -138.5 -108.5t-177.5 -42.5q-143 0 -260 71.5t-182 193.5t-65 267zM307 512q0 -120 85.5 -205.5t205.5 -85.5t205.5 85.5t85.5 205.5t-85.5 205.5t-205.5 85.5 t-205.5 -85.5t-85.5 -205.5z" />
<glyph unicode="b" d="M119 0v1475h241v-578q54 64 139 105.5t177 41.5q144 0 261 -71.5t182 -193.5t65 -267t-65 -267t-182 -193.5t-261 -71.5q-93 0 -177.5 42.5t-138.5 108.5v-131h-241zM360 512q0 -120 85.5 -205.5t205.5 -85.5t205.5 85.5t85.5 205.5t-85.5 205.5t-205.5 85.5 t-205.5 -85.5t-85.5 -205.5z" />
<glyph unicode="c" horiz-adv-x="1028" d="M66 512q0 145 71.5 267.5t194 193.5t266.5 71q112 0 212 -43.5t173 -121.5l-170 -170q-41 44 -97 69t-118 25q-120 0 -205.5 -85.5t-85.5 -205.5t85.5 -205.5t205.5 -85.5q129 0 215 96l170 -172q-73 -78 -173 -121.5t-212 -43.5q-144 0 -266.5 71.5t-194 194 t-71.5 266.5z" />
<glyph unicode="d" d="M66 512q0 145 65 267t182 193.5t260 71.5q92 0 177 -41.5t139 -105.5v578h241v-1475h-241v131q-54 -66 -138.5 -108.5t-177.5 -42.5q-143 0 -260 71.5t-182 193.5t-65 267zM307 512q0 -120 85.5 -205.5t205.5 -85.5t205.5 85.5t85.5 205.5t-85.5 205.5t-205.5 85.5 t-205.5 -85.5t-85.5 -205.5z" />
<glyph unicode="e" horiz-adv-x="1142" d="M66 512q0 226 150 379t372 153q218 0 353.5 -144.5t135.5 -373.5q0 -20 -10 -123h-762q31 -96 112 -150t195 -54q162 0 254 102l154 -154q-150 -167 -410 -167q-152 0 -277 70t-196 192t-71 270zM301 592h549q-15 107 -88.5 171t-177.5 64q-107 0 -187.5 -65.5 t-95.5 -169.5z" />
<glyph unicode="f" horiz-adv-x="731" d="M33 782v242h172v55q0 416 409 416h84v-233h-63q-96 0 -142.5 -43.5t-46.5 -155.5v-39h252v-242h-252v-782h-241v782h-172z" />
<glyph unicode="g" d="M66 512q0 145 65 267t182 193.5t260 71.5q92 0 177 -41.5t139 -105.5v127h241v-1004q0 -229 -145.5 -360t-400.5 -131q-125 0 -245 42.5t-208 123.5l168 168q59 -50 136 -77.5t153 -27.5q142 0 221.5 65t79.5 181v127q-54 -66 -138.5 -108.5t-177.5 -42.5 q-143 0 -260 71.5t-182 193.5t-65 267zM307 512q0 -120 85.5 -205.5t205.5 -85.5t205.5 85.5t85.5 205.5t-85.5 205.5t-205.5 85.5t-205.5 -85.5t-85.5 -205.5z" />
<glyph unicode="h" horiz-adv-x="1187" d="M119 0v1475h241v-562q58 61 138.5 96t169.5 35q180 0 290.5 -117t110.5 -311v-616h-242v565q0 125 -59 188.5t-160 63.5q-107 0 -177.5 -72.5t-70.5 -191.5v-553h-241z" />
<glyph unicode="i" horiz-adv-x="479" d="M96 1352q0 59 42 101t102 42t101.5 -42t41.5 -101q0 -60 -41.5 -103t-101.5 -43t-102 43t-42 103zM119 0v1024h241v-1024h-241z" />
<glyph unicode="j" horiz-adv-x="479" d="M-25 -238h19q72 0 98.5 35.5t26.5 130.5v1096h241v-1100q0 -200 -85.5 -297.5t-268.5 -97.5h-31v233zM96 1352q0 60 42 101.5t102 41.5t101.5 -41.5t41.5 -101.5t-41.5 -103t-101.5 -43t-102 43t-42 103z" />
<glyph unicode="k" horiz-adv-x="1058" d="M119 0v1475h241v-871l353 420h305l-416 -494l440 -530h-303l-379 457v-457h-241z" />
<glyph unicode="l" horiz-adv-x="479" d="M119 0v1536h241v-1536h-241z" />
<glyph unicode="m" horiz-adv-x="1896" d="M119 0v1024h241v-111q58 61 138.5 96t169.5 35q116 0 205 -50t139 -142q74 94 160.5 143t203.5 49q180 0 291 -117t111 -311v-616h-242v565q0 125 -59 188.5t-160 63.5q-106 0 -177 -72t-71 -188v-557h-242v565q0 125 -59 188.5t-160 63.5q-107 0 -177.5 -72.5 t-70.5 -191.5v-553h-241z" />
<glyph unicode="n" horiz-adv-x="1187" d="M119 0v1024h241v-111q58 61 138.5 96t169.5 35q180 0 290.5 -117t110.5 -311v-616h-242v565q0 125 -59 188.5t-160 63.5q-107 0 -177.5 -72.5t-70.5 -191.5v-553h-241z" />
<glyph unicode="o" horiz-adv-x="1196" d="M66 512q0 145 71.5 267.5t194 193.5t266.5 71q145 0 267.5 -71t193.5 -193.5t71 -267.5q0 -144 -71 -266.5t-193.5 -194t-267.5 -71.5q-144 0 -266.5 71.5t-194 194t-71.5 266.5zM307 512q0 -120 85.5 -205.5t205.5 -85.5t205.5 85.5t85.5 205.5t-85.5 205.5t-205.5 85.5 t-205.5 -85.5t-85.5 -205.5z" />
<glyph unicode="p" d="M119 -487v1511h241v-131q54 66 138.5 108.5t177.5 42.5q145 0 261.5 -71t181.5 -193t65 -268q0 -145 -65 -267t-182 -193.5t-261 -71.5q-93 0 -177.5 42t-138.5 107v-616h-241zM360 512q0 -120 85.5 -205.5t205.5 -85.5t205.5 85.5t85.5 205.5t-85.5 205.5t-205.5 85.5 t-205.5 -85.5t-85.5 -205.5z" />
<glyph unicode="q" d="M66 512q0 146 65 268t181.5 193t260.5 71q93 0 177.5 -42.5t138.5 -108.5v131h241v-1475h-241v580q-54 -65 -138.5 -107t-177.5 -42q-143 0 -260 71.5t-182 193.5t-65 267zM307 512q0 -120 85.5 -205.5t205.5 -85.5t205.5 85.5t85.5 205.5t-85.5 205.5t-205.5 85.5 t-205.5 -85.5t-85.5 -205.5z" />
<glyph unicode="r" horiz-adv-x="704" d="M119 0v1024h241v-117q54 64 133.5 100.5t174.5 36.5v-229q-8 2 -27 2q-118 0 -199.5 -74.5t-81.5 -189.5v-553h-241z" />
<glyph unicode="s" horiz-adv-x="966" d="M45 154l143 165q62 -54 144 -87t166 -33q77 0 129.5 28.5t52.5 69.5q0 23 -13 42.5t-31 32t-46 23.5t-49.5 17.5t-49.5 13.5q-11 3 -16 4q-152 42 -203 64q-163 70 -187 199q-5 26 -5 52q0 130 113.5 214.5t287.5 84.5q118 0 224.5 -40t183.5 -109l-133 -164 q-110 94 -275 94q-76 0 -116.5 -23t-40.5 -59q0 -43 95 -73q29 -9 118 -31q68 -16 118.5 -32.5t103.5 -44t86.5 -62t55 -86t21.5 -115.5q0 -138 -122 -228.5t-308 -90.5q-258 0 -447 174z" />
<glyph unicode="t" horiz-adv-x="800" d="M37 782v242h98q40 0 65 24t25 64v186h242v-274h260v-242h-260v-366q0 -121 24.5 -162t98.5 -41q55 0 137 16v-229q-78 -20 -170 -20q-175 0 -253.5 85.5t-78.5 278.5v438h-188z" />
<glyph unicode="u" horiz-adv-x="1187" d="M119 408v616h241v-565q0 -124 60 -188t160 -64q106 0 176.5 73t70.5 191v553h242v-1024h-242v111q-58 -61 -138 -96t-169 -35q-180 0 -290.5 117t-110.5 311z" />
<glyph unicode="v" horiz-adv-x="1153" d="M16 1024h263l299 -729l296 729h263l-424 -1024h-271z" />
<glyph unicode="w" horiz-adv-x="1523" d="M16 1024h254l193 -657l188 657h221l189 -657l192 657h254l-317 -1024h-260l-168 547l-170 -547h-258z" />
<glyph unicode="x" horiz-adv-x="1140" d="M16 0l404 530l-375 494h301l225 -291l224 291h301l-375 -494l403 -530h-303l-250 328l-252 -328h-303z" />
<glyph unicode="y" horiz-adv-x="1132" d="M16 1024h263l294 -721l281 721h262l-481 -1208q-115 -287 -408 -287q-63 0 -94 2v233q9 0 28 -1t29 -1q74 0 124.5 33.5t84.5 110.5l41 94z" />
<glyph unicode="z" horiz-adv-x="1003" d="M84 0v180l496 619h-471v225h796v-178l-497 -621h528v-225h-852z" />
<glyph unicode="{" horiz-adv-x="647" d="M66 578v194q170 0 170 156v346q0 184 92 274t278 90v-213q-83 0 -112 -35.5t-29 -136.5v-358q0 -74 -37 -131t-106 -88q69 -31 106 -88t37 -131v-359q0 -101 29 -136.5t112 -35.5v-213q-186 0 -278 90.5t-92 274.5v346q0 154 -170 154z" />
<glyph unicode="|" horiz-adv-x="503" d="M131 -225v1884h242v-1884h-242z" />
<glyph unicode="}" horiz-adv-x="647" d="M41 -74q83 0 112 35.5t29 136.5v359q0 74 37.5 131t106.5 88q-69 31 -106.5 88t-37.5 131v358q0 101 -29 136.5t-112 35.5v213q187 0 279 -90t92 -274v-346q0 -156 170 -156v-194q-170 0 -170 -154v-346q0 -365 -371 -365v213z" />
<glyph unicode="~" horiz-adv-x="1386" d="M76 657q46 129 147 205t232 76q70 0 140.5 -27t118.5 -59t108.5 -59t113.5 -27q124 0 180 141l195 -96q-48 -126 -147.5 -200t-227.5 -74q-71 0 -142 27t-118.5 59t-108 59t-112.5 27q-66 0 -112.5 -39t-72.5 -109z" />
<glyph unicode="&#xa1;" horiz-adv-x="544" d="M121 893q0 63 44 107t107 44t107.5 -44t44.5 -107t-44.5 -107.5t-107.5 -44.5t-107 44.5t-44 107.5zM152 88l24 512h191l26 -512v-539h-241v539z" />
<glyph unicode="&#xa2;" horiz-adv-x="1028" d="M55 676q0 184 113 326.5t285 185.5v164h241v-156q161 -30 279 -154l-172 -170q-40 45 -96 70t-117 25q-120 0 -205.5 -85.5t-85.5 -205.5t85.5 -205.5t205.5 -85.5q128 0 215 96l170 -172q-117 -123 -279 -153v-156h-241v164q-172 43 -285 185.5t-113 326.5z" />
<glyph unicode="&#xa3;" horiz-adv-x="1075" d="M39 0v229q95 15 146 85t51 186v104h-179v213h179v154q0 255 119 389.5t345 134.5q186 0 351 -98l-68 -223q-133 79 -274 79q-122 0 -179 -68t-57 -214v-154h369v-213h-369v-104q0 -196 -96 -271h635v-229h-973z" />
<glyph unicode="&#xa4;" horiz-adv-x="1091" d="M51 381l131 129q-67 103 -67 227q0 125 67 228l-131 131l137 137l131 -131q103 67 228 67q124 0 227 -67l129 131l137 -137l-129 -131q66 -106 66 -228q0 -121 -66 -227l129 -129l-137 -139l-129 131q-104 -68 -227 -68q-124 0 -228 68l-131 -131zM311 737q0 -97 69 -166 t167 -69q97 0 165 68.5t68 166.5q0 97 -68.5 166.5t-164.5 69.5q-97 0 -166.5 -69t-69.5 -167z" />
<glyph unicode="&#xa5;" horiz-adv-x="1318" d="M20 1475h271l368 -711l367 711h272l-442 -838h229v-201h-305v-94h305v-201h-305v-141h-241v141h-308v201h308v94h-308v201h232z" />
<glyph unicode="&#xa6;" horiz-adv-x="503" d="M131 -225v717h242v-717h-242zM131 942v717h242v-717h-242z" />
<glyph unicode="&#xa7;" horiz-adv-x="972" d="M45 754q0 75 33.5 140t93.5 112q-84 71 -84 186q0 131 115 217t297 86q110 0 214 -40t181 -109l-131 -164q-52 44 -124.5 70t-137.5 26q-81 0 -126.5 -25t-45.5 -63q0 -14 8.5 -26t25 -22t34 -18t41 -15t40 -11.5t38.5 -9.5t28 -7q87 -24 149.5 -50.5t119 -68t85.5 -102 t29 -139.5q0 -75 -33.5 -140t-93.5 -112q86 -73 86 -186q0 -131 -116 -217t-298 -86q-110 0 -214 40t-181 109l131 164q52 -44 124.5 -70t137.5 -26q81 0 126.5 25t45.5 63q0 61 -200 105q-3 1 -5 1.5l-4 1t-4 0.5q-86 21 -150.5 48t-120 68.5t-85 103.5t-29.5 141zM287 756 q0 -50 44 -86t161 -68q13 -4 40 -9.5t33 -6.5q49 14 85 51.5t36 81.5q0 50 -44 85.5t-161 67.5q-20 5 -73 17q-49 -14 -85 -51.5t-36 -81.5z" />
<glyph unicode="&#xa8;" horiz-adv-x="845" d="M84 1358q0 56 39 94.5t94 38.5q54 0 93.5 -39t39.5 -94t-39.5 -94t-93.5 -39q-55 0 -94 38.5t-39 94.5zM498 1358q0 56 39 94.5t94 38.5t94 -38.5t39 -94.5t-39 -94.5t-94 -38.5t-94 38.5t-39 94.5z" />
<glyph unicode="&#xa9;" horiz-adv-x="1662" d="M74 737q0 154 60 294.5t161.5 242t241.5 161.5t294 60t294.5 -60t242 -161.5t161.5 -242t60 -294.5t-60 -294t-161.5 -241.5t-242 -161.5t-294.5 -60q-206 0 -380 101.5t-275.5 275.5t-101.5 380zM219 737q0 -166 82 -307t223 -223t307 -82t307.5 82t223.5 223t82 307 q0 124 -48.5 238t-130.5 196t-196 130.5t-238 48.5q-166 0 -307 -82t-223 -223.5t-82 -307.5zM387 737q0 185 130 315t314 130q95 0 180 -37.5t146 -104.5l-119 -116q-85 92 -207 92q-115 0 -196.5 -81.5t-81.5 -197.5q0 -115 81.5 -196.5t196.5 -81.5q122 0 207 92 l119 -117q-61 -67 -145.5 -104t-180.5 -37q-121 0 -223 59.5t-161.5 161.5t-59.5 223z" />
<glyph unicode="&#xaa;" horiz-adv-x="831" d="M61 1167q0 133 87.5 226.5t218.5 93.5q55 0 105 -25t83 -63v76h160v-615h-160v78q-33 -39 -82.5 -64.5t-105.5 -25.5q-131 0 -218.5 93t-87.5 226zM82 604v141h633v-141h-633zM221 1167q0 -66 47 -112.5t113 -46.5t113 46.5t47 112.5t-47 113t-113 47t-113 -47t-47 -113z " />
<glyph unicode="&#xab;" horiz-adv-x="1226" d="M106 532l248 383h299l-250 -383l250 -382h-299zM573 532l250 383h297l-250 -383l250 -382h-297z" />
<glyph unicode="&#xac;" horiz-adv-x="1148" d="M86 616v242h977v-543h-242v301h-735z" />
<glyph unicode="&#xad;" horiz-adv-x="890" d="M123 412v241h645v-241h-645z" />
<glyph unicode="&#xae;" horiz-adv-x="1662" d="M74 737q0 154 60 294.5t161.5 242t241.5 161.5t294 60t294.5 -60t242 -161.5t161.5 -242t60 -294.5t-60 -294t-161.5 -241.5t-242 -161.5t-294.5 -60q-206 0 -380 101.5t-275.5 275.5t-101.5 380zM219 737q0 -166 82 -307t223 -223t307 -82t307.5 82t223.5 223t82 307 q0 124 -48.5 238t-130.5 196t-196 130.5t-238 48.5q-166 0 -307 -82t-223 -223.5t-82 -307.5zM504 299v870h364q120 0 199.5 -84.5t79.5 -212.5q0 -78 -33.5 -142t-91.5 -103l149 -328h-182l-127 274h-16h-174v-274h-168zM672 739h176q61 2 96 36.5t35 96.5q0 61 -35.5 96.5 t-95.5 35.5h-176v-265z" />
<glyph unicode="&#xaf;" horiz-adv-x="749" d="M106 1245v166h537v-166h-537z" />
<glyph unicode="&#xb0;" horiz-adv-x="782" d="M66 1333q0 135 95 230.5t230 95.5t230.5 -95.5t95.5 -230.5t-95.5 -230t-230.5 -95t-230 95t-95 230zM244 1333q0 -61 43 -104t104 -43q62 0 106 43t44 104t-44 104.5t-106 43.5q-61 0 -104 -43t-43 -105z" />
<glyph unicode="&#xb1;" horiz-adv-x="1050" d="M86 100v242h879v-242h-879zM86 774v242h320v301h241v-301h318v-242h-318v-303h-241v303h-320z" />
<glyph unicode="&#xb4;" horiz-adv-x="532" d="M74 1167l155 310h230l-174 -310h-211z" />
<glyph unicode="&#xb6;" horiz-adv-x="1335" d="M66 1014q0 191 135 326t325 135h641v-1700h-204v1470h-164v-1470h-205v780h-68q-191 0 -325.5 134.5t-134.5 324.5z" />
<glyph unicode="&#xb7;" horiz-adv-x="450" d="M74 737q0 63 44 107.5t107 44.5t107.5 -44.5t44.5 -107.5t-44.5 -107t-107.5 -44t-107 44t-44 107z" />
<glyph unicode="&#xb8;" horiz-adv-x="636" d="M74 -391l53 133q80 -33 166 -33q37 0 64.5 13t27.5 38q0 28 -42.5 45.5t-127.5 30.5l29 164h172l-8 -74q155 -49 155 -166q0 -91 -73 -140.5t-191 -49.5q-103 0 -225 39z" />
<glyph unicode="&#xba;" horiz-adv-x="761" d="M61 1176q0 132 94 225.5t226 93.5t225.5 -93.5t93.5 -225.5t-93.5 -226t-225.5 -94t-226 94t-94 226zM76 604v141h610v-141h-610zM221 1176q0 -66 47 -113t113 -47t113 47t47 113t-47 112.5t-113 46.5t-113 -46.5t-47 -112.5z" />
<glyph unicode="&#xbb;" horiz-adv-x="1226" d="M106 150l250 382l-250 383h297l250 -383l-250 -382h-297zM573 150l250 382l-250 383h299l248 -383l-248 -382h-299z" />
<glyph unicode="&#xbc;" horiz-adv-x="1863" d="M98 1339l248 136h141v-869h-159v682l-160 -88zM330 0l964 1475h213l-964 -1475h-213zM1098 174v139l307 555h180l-293 -534h219v176h160v-176h94v-160h-94v-174h-160v174h-413z" />
<glyph unicode="&#xbd;" horiz-adv-x="1931" d="M98 1339l248 136h141v-869h-159v682l-160 -88zM330 0l964 1475h213l-964 -1475h-213zM1241 674q30 93 109 150t182 57q124 0 204.5 -75t80.5 -194q0 -80 -37 -152t-121 -153l-160 -151h334v-156h-584v129l295 291q56 54 84.5 97t28.5 93q0 52 -34 81.5t-93 29.5 q-54 0 -92.5 -30.5t-55.5 -84.5z" />
<glyph unicode="&#xbe;" horiz-adv-x="1970" d="M98 797l144 61q20 -56 61 -86.5t96 -30.5q65 0 104.5 35t39.5 92q0 60 -41 96.5t-109 36.5q-34 0 -53 -8l-76 117l168 207h-280v158h507v-125l-178 -213q99 -14 160 -88t61 -181q0 -126 -85.5 -204t-221.5 -78q-103 0 -183 57t-114 154zM418 0l964 1475h211l-962 -1475 h-213zM1206 174v139l307 555h181l-295 -534h221v176h160v-176h92v-160h-92v-174h-160v174h-414z" />
<glyph unicode="&#xbf;" horiz-adv-x="1107" d="M94 -41q0 33 6.5 65t14.5 56.5t26 53t30 46t37.5 45t37.5 39.5t42 40t40 38q75 74 108.5 131.5t34.5 126.5h246q-1 -57 -16.5 -109t-48 -101t-68.5 -89.5t-90 -93.5q-86 -84 -111 -118q-47 -63 -47 -126q0 -88 57.5 -140t161.5 -52q94 0 165.5 53.5t96.5 140.5l225 -90 q-47 -154 -182 -250t-305 -96q-209 0 -335 119.5t-126 310.5zM440 893q0 63 44 107t106 44q63 0 107 -44t44 -107t-44 -107.5t-107 -44.5q-62 0 -106 44.5t-44 107.5z" />
<glyph unicode="&#xc0;" horiz-adv-x="1427" d="M20 0l562 1475h264l561 -1475h-260l-117 305h-633l-116 -305h-261zM440 1927h228l155 -309h-211zM483 547h461l-229 604z" />
<glyph unicode="&#xc1;" horiz-adv-x="1427" d="M20 0l562 1475h264l561 -1475h-260l-117 305h-633l-116 -305h-261zM483 547h461l-229 604zM604 1618l156 309h227l-172 -309h-211z" />
<glyph unicode="&#xc2;" horiz-adv-x="1427" d="M20 0l562 1475h264l561 -1475h-260l-117 305h-633l-116 -305h-261zM340 1618l248 309h254l245 -309h-225l-147 162l-148 -162h-227zM483 547h461l-229 604z" />
<glyph unicode="&#xc3;" horiz-adv-x="1427" d="M20 0l562 1475h264l561 -1475h-260l-117 305h-633l-116 -305h-261zM356 1665q3 268 213 268q53 0 96.5 -19t67.5 -41.5t54 -41.5t59 -19q33 0 47 23t16 78h164q-6 -273 -215 -273q-53 0 -96 19t-67 42.5t-54 42.5t-59 19q-34 0 -48 -22.5t-16 -75.5h-162zM483 547h461 l-229 604z" />
<glyph unicode="&#xc4;" horiz-adv-x="1427" d="M20 0l562 1475h264l561 -1475h-260l-117 305h-633l-116 -305h-261zM375 1763q0 54 38.5 93.5t92.5 39.5q55 0 94 -39.5t39 -93.5q0 -55 -38.5 -94t-94.5 -39q-54 0 -92.5 39t-38.5 94zM483 547h461l-229 604zM788 1763q0 54 39.5 93.5t94.5 39.5t94 -39.5t39 -93.5 q0 -55 -38.5 -94t-94.5 -39t-95 39t-39 94z" />
<glyph unicode="&#xc5;" horiz-adv-x="1427" d="M20 0l562 1475h264l561 -1475h-260l-117 305h-633l-116 -305h-261zM444 1837q0 112 79 191t192 79q111 0 189.5 -79t78.5 -191t-78.5 -191t-189.5 -79q-113 0 -192 79t-79 191zM483 547h461l-229 604zM610 1837q0 -42 31 -72t74 -30q42 0 72 30t30 72t-30 72t-72 30 q-43 0 -74 -30t-31 -72z" />
<glyph unicode="&#xc6;" horiz-adv-x="1996" d="M20 0l689 1475h1214v-242h-713v-346h631v-242h-631v-403h713v-242h-954v305h-541l-147 -305h-261zM537 547h432v686h-105z" />
<glyph unicode="&#xc7;" horiz-adv-x="1431" d="M74 737q0 154 60 294.5t161.5 242t241.5 161.5t294 60q162 0 305.5 -64t249.5 -178l-169 -172q-73 81 -173.5 126.5t-212.5 45.5q-140 0 -259 -69t-188 -188t-69 -259t69 -259t188 -188t259 -69q113 0 212.5 45.5t173.5 126.5l169 -172q-96 -104 -225.5 -166.5 t-275.5 -72.5l-8 -56q155 -48 155 -166q0 -90 -72.5 -140t-191.5 -50q-100 0 -225 39l53 133q85 -33 168 -33q37 2 64.5 14.5t27.5 36.5q0 50 -170 76l27 154q-179 27 -325 132.5t-230 267.5t-84 347z" />
<glyph unicode="&#xc8;" horiz-adv-x="1179" d="M152 0v1475h954v-242h-713v-346h631v-242h-631v-403h713v-242h-954zM416 1927h227l156 -309h-211z" />
<glyph unicode="&#xc9;" horiz-adv-x="1179" d="M152 0v1475h954v-242h-713v-346h631v-242h-631v-403h713v-242h-954zM489 1618l158 309h227l-172 -309h-213z" />
<glyph unicode="&#xca;" horiz-adv-x="1179" d="M152 0v1475h954v-242h-713v-346h631v-242h-631v-403h713v-242h-954zM246 1618l248 309h254l247 -309h-227l-147 162l-148 -162h-227z" />
<glyph unicode="&#xcb;" horiz-adv-x="1179" d="M152 0v1475h954v-242h-713v-346h631v-242h-631v-403h713v-242h-954zM291 1763q0 54 39 93.5t94 39.5t94 -39.5t39 -93.5q0 -55 -38.5 -94t-94.5 -39t-94.5 39t-38.5 94zM705 1763q0 54 39 93.5t94 39.5t94 -39.5t39 -93.5q0 -55 -38.5 -94t-94.5 -39t-94.5 39t-38.5 94z " />
<glyph unicode="&#xcc;" horiz-adv-x="544" d="M14 1927h230l155 -309h-211zM152 0v1475h241v-1475h-241z" />
<glyph unicode="&#xcd;" horiz-adv-x="544" d="M145 1618l158 309h227l-174 -309h-211zM152 0v1475h241v-1475h-241z" />
<glyph unicode="&#xce;" horiz-adv-x="544" d="M-102 1618l247 309h254l248 -309h-227l-148 162l-147 -162h-227zM152 0v1475h241v-1475h-241z" />
<glyph unicode="&#xcf;" horiz-adv-x="544" d="M-68 1763q0 54 39.5 93.5t94.5 39.5t94 -39.5t39 -93.5q0 -55 -38.5 -94t-94.5 -39t-95 39t-39 94zM152 0v1475h241v-1475h-241zM346 1763q0 54 39 93.5t94 39.5t94 -39.5t39 -93.5q0 -55 -39 -94t-94 -39t-94 39t-39 94z" />
<glyph unicode="&#xd0;" horiz-adv-x="1505" d="M49 645v186h103v644h567q204 0 367 -94t254.5 -263t91.5 -381t-91 -380.5t-254 -262.5t-368 -94h-567v645h-103zM393 242h326q211 0 341 137t130 358t-130 358.5t-341 137.5h-326v-402h301v-186h-301v-403z" />
<glyph unicode="&#xd1;" horiz-adv-x="1462" d="M152 0v1475h223l696 -1016v1016h242v-1475h-226l-694 1016v-1016h-241zM373 1665q6 268 215 268q53 0 96 -19t67 -41.5t54 -41.5t59 -19q33 0 47.5 23.5t16.5 77.5h162q-3 -273 -213 -273q-43 0 -79.5 12.5t-61 31t-45.5 36.5t-44 30.5t-47 12.5q-34 0 -48.5 -22.5 t-16.5 -75.5h-162z" />
<glyph unicode="&#xd2;" horiz-adv-x="1662" d="M74 737q0 154 60 294.5t161.5 242t241.5 161.5t294 60t294.5 -60t242 -161.5t161.5 -242t60 -294.5t-60 -294t-161.5 -241.5t-242 -161.5t-294.5 -60q-206 0 -380 101.5t-275.5 275.5t-101.5 380zM315 737q0 -140 69 -259t188 -188t259 -69t259 69t188.5 188t69.5 259 t-69.5 259t-188.5 188t-259 69t-259 -69t-188 -188t-69 -259zM590 1927h229l156 -309h-211z" />
<glyph unicode="&#xd3;" horiz-adv-x="1662" d="M74 737q0 154 60 294.5t161.5 242t241.5 161.5t294 60t294.5 -60t242 -161.5t161.5 -242t60 -294.5t-60 -294t-161.5 -241.5t-242 -161.5t-294.5 -60q-206 0 -380 101.5t-275.5 275.5t-101.5 380zM315 737q0 -140 69 -259t188 -188t259 -69t259 69t188.5 188t69.5 259 t-69.5 259t-188.5 188t-259 69t-259 -69t-188 -188t-69 -259zM721 1618l158 309h227l-174 -309h-211z" />
<glyph unicode="&#xd4;" horiz-adv-x="1662" d="M74 737q0 154 60 294.5t161.5 242t241.5 161.5t294 60t294.5 -60t242 -161.5t161.5 -242t60 -294.5t-60 -294t-161.5 -241.5t-242 -161.5t-294.5 -60q-206 0 -380 101.5t-275.5 275.5t-101.5 380zM315 737q0 -140 69 -259t188 -188t259 -69t259 69t188.5 188t69.5 259 t-69.5 259t-188.5 188t-259 69t-259 -69t-188 -188t-69 -259zM457 1618l248 309h253l248 -309h-227l-148 162l-147 -162h-227z" />
<glyph unicode="&#xd5;" horiz-adv-x="1662" d="M74 737q0 154 60 294.5t161.5 242t241.5 161.5t294 60t294.5 -60t242 -161.5t161.5 -242t60 -294.5t-60 -294t-161.5 -241.5t-242 -161.5t-294.5 -60q-206 0 -380 101.5t-275.5 275.5t-101.5 380zM315 737q0 -140 69 -259t188 -188t259 -69t259 69t188.5 188t69.5 259 t-69.5 259t-188.5 188t-259 69t-259 -69t-188 -188t-69 -259zM473 1665q6 268 213 268q53 0 96.5 -19t68 -41.5t55 -41.5t59.5 -19q33 0 47 23t16 78h162q-3 -273 -213 -273q-44 0 -80.5 12.5t-61 31t-45.5 36.5t-44.5 30.5t-47.5 12.5q-33 0 -47 -22.5t-16 -75.5h-162z" />
<glyph unicode="&#xd6;" horiz-adv-x="1662" d="M74 737q0 154 60 294.5t161.5 242t241.5 161.5t294 60t294.5 -60t242 -161.5t161.5 -242t60 -294.5t-60 -294t-161.5 -241.5t-242 -161.5t-294.5 -60q-206 0 -380 101.5t-275.5 275.5t-101.5 380zM315 737q0 -140 69 -259t188 -188t259 -69t259 69t188.5 188t69.5 259 t-69.5 259t-188.5 188t-259 69t-259 -69t-188 -188t-69 -259zM492 1763q0 54 39 93.5t94 39.5t94 -39.5t39 -93.5q0 -55 -39 -94t-94 -39t-94 39t-39 94zM905 1763q0 54 39 93.5t94 39.5t94 -39.5t39 -93.5q0 -55 -38.5 -94t-94.5 -39t-94.5 39t-38.5 94z" />
<glyph unicode="&#xd7;" horiz-adv-x="1050" d="M129 512l225 225l-225 226l172 170l225 -226l226 226l170 -170l-226 -226l226 -225l-170 -170l-226 225l-225 -225z" />
<glyph unicode="&#xd8;" horiz-adv-x="1662" d="M74 737q0 154 60 294.5t161.5 242t241.5 161.5t294 60q127 0 242 -41l68 143h217l-109 -229q157 -103 248.5 -269.5t91.5 -361.5q0 -154 -60 -294t-161.5 -241.5t-242 -161.5t-294.5 -60q-120 0 -223 34l-65 -137h-217l102 219q-162 101 -258 271.5t-96 369.5zM315 737 q0 -128 59 -238t161 -180l432 914q-72 20 -136 20q-140 0 -259 -69t-188 -188t-69 -259zM715 240q59 -19 116 -19q140 0 259 69t188.5 188t69.5 259q0 124 -55 231t-150 177z" />
<glyph unicode="&#xd9;" horiz-adv-x="1449" d="M152 567v908h241v-908q0 -160 90 -254t242 -94q153 0 242.5 94t89.5 254v908h241v-908q0 -261 -159 -424t-414 -163t-414 163t-159 424zM483 1927h230l155 -309h-211z" />
<glyph unicode="&#xda;" horiz-adv-x="1449" d="M152 567v908h241v-908q0 -160 90 -254t242 -94q153 0 242.5 94t89.5 254v908h241v-908q0 -261 -159 -424t-414 -163t-414 163t-159 424zM582 1618l157 309h228l-174 -309h-211z" />
<glyph unicode="&#xdb;" horiz-adv-x="1449" d="M152 567v908h241v-908q0 -160 90 -254t242 -94q153 0 242.5 94t89.5 254v908h241v-908q0 -261 -159 -424t-414 -163t-414 163t-159 424zM350 1618l248 309h254l248 -309h-228l-147 162l-147 -162h-228z" />
<glyph unicode="&#xdc;" horiz-adv-x="1449" d="M152 567v908h241v-908q0 -160 90 -254t242 -94q153 0 242.5 94t89.5 254v908h241v-908q0 -261 -159 -424t-414 -163t-414 163t-159 424zM385 1763q0 54 39 93.5t94 39.5t94 -39.5t39 -93.5q0 -55 -38.5 -94t-94.5 -39t-94.5 39t-38.5 94zM799 1763q0 54 39.5 93.5 t93.5 39.5q55 0 94 -39.5t39 -93.5q0 -55 -38.5 -94t-94.5 -39q-54 0 -93.5 39t-39.5 94z" />
<glyph unicode="&#xdd;" horiz-adv-x="1294" d="M8 1475h271l368 -711l369 711h270l-518 -983v-492h-242v492zM504 1618l158 309h227l-174 -309h-211z" />
<glyph unicode="&#xde;" horiz-adv-x="1308" d="M152 0v1475h229v-228h362q138 0 255 -68.5t185 -186t68 -255.5t-68 -255t-185 -185t-255 -68h-362v-229h-229zM381 471h362q110 0 188.5 78t78.5 188t-78.5 189.5t-188.5 79.5h-362v-535z" />
<glyph unicode="&#xdf;" horiz-adv-x="1257" d="M119 0v977q0 247 134 381.5t378 136.5q204 2 333.5 -111t129.5 -294q0 -166 -115 -281q102 -53 157.5 -150t55.5 -227q0 -202 -130 -327t-341 -125q-144 0 -264 32v242q119 -35 233 -35q128 0 195 57.5t67 161.5q0 101 -66 159t-181 58h-222v226h148q107 4 163 57t56 125 q0 86 -64 140t-163 54q-118 0 -190.5 -76.5t-72.5 -201.5v-979h-241z" />
<glyph unicode="&#xe0;" d="M66 512q0 145 65 267t182 193.5t260 71.5q92 0 177 -41.5t139 -105.5v127h241v-1024h-241v131q-54 -66 -138.5 -108.5t-177.5 -42.5q-143 0 -260 71.5t-182 193.5t-65 267zM307 512q0 -120 85.5 -205.5t205.5 -85.5t205.5 85.5t85.5 205.5t-85.5 205.5t-205.5 85.5 t-205.5 -85.5t-85.5 -205.5zM344 1477h229l156 -310h-211z" />
<glyph unicode="&#xe1;" d="M66 512q0 145 65 267t182 193.5t260 71.5q92 0 177 -41.5t139 -105.5v127h241v-1024h-241v131q-54 -66 -138.5 -108.5t-177.5 -42.5q-143 0 -260 71.5t-182 193.5t-65 267zM307 512q0 -120 85.5 -205.5t205.5 -85.5t205.5 85.5t85.5 205.5t-85.5 205.5t-205.5 85.5 t-205.5 -85.5t-85.5 -205.5zM492 1167l157 310h228l-175 -310h-210z" />
<glyph unicode="&#xe2;" d="M66 512q0 145 65 267t182 193.5t260 71.5q92 0 177 -41.5t139 -105.5v127h241v-1024h-241v131q-54 -66 -138.5 -108.5t-177.5 -42.5q-143 0 -260 71.5t-182 193.5t-65 267zM217 1167l248 310h254l248 -310h-228l-147 162l-148 -162h-227zM307 512q0 -120 85.5 -205.5 t205.5 -85.5t205.5 85.5t85.5 205.5t-85.5 205.5t-205.5 85.5t-205.5 -85.5t-85.5 -205.5z" />
<glyph unicode="&#xe3;" d="M66 512q0 145 65 267t182 193.5t260 71.5q92 0 177 -41.5t139 -105.5v127h241v-1024h-241v131q-54 -66 -138.5 -108.5t-177.5 -42.5q-143 0 -260 71.5t-182 193.5t-65 267zM233 1227q6 268 216 268q52 0 95 -19t67 -41.5t54.5 -41.5t59.5 -19q33 0 47 23t16 78h162 q-3 -273 -213 -273q-44 0 -80.5 12.5t-60.5 31t-45 36.5t-43.5 30.5t-46.5 12.5q-35 0 -49.5 -22.5t-16.5 -75.5h-162zM307 512q0 -120 85.5 -205.5t205.5 -85.5t205.5 85.5t85.5 205.5t-85.5 205.5t-205.5 85.5t-205.5 -85.5t-85.5 -205.5z" />
<glyph unicode="&#xe4;" d="M66 512q0 145 65 267t182 193.5t260 71.5q92 0 177 -41.5t139 -105.5v127h241v-1024h-241v131q-54 -66 -138.5 -108.5t-177.5 -42.5q-143 0 -260 71.5t-182 193.5t-65 267zM283 1358q0 56 38.5 94.5t94.5 38.5q54 0 93.5 -39t39.5 -94t-39.5 -94t-93.5 -39 q-56 0 -94.5 38.5t-38.5 94.5zM307 512q0 -120 85.5 -205.5t205.5 -85.5t205.5 85.5t85.5 205.5t-85.5 205.5t-205.5 85.5t-205.5 -85.5t-85.5 -205.5zM696 1358q0 56 39 94.5t94 38.5q56 0 95 -39t39 -94t-39 -94t-95 -39q-55 0 -94 38.5t-39 94.5z" />
<glyph unicode="&#xe5;" d="M66 512q0 145 65 267t182 193.5t260 71.5q92 0 177 -41.5t139 -105.5v127h241v-1024h-241v131q-54 -66 -138.5 -108.5t-177.5 -42.5q-143 0 -260 71.5t-182 193.5t-65 267zM307 512q0 -120 85.5 -205.5t205.5 -85.5t205.5 85.5t85.5 205.5t-85.5 205.5t-205.5 85.5 t-205.5 -85.5t-85.5 -205.5zM313 1419q0 113 79.5 192t191.5 79t191 -79t79 -192t-79 -191.5t-191 -78.5q-113 0 -192 79t-79 191zM481 1419q0 -43 30 -72.5t73 -29.5t72.5 29.5t29.5 72.5t-29.5 73t-72.5 30t-73 -30t-30 -73z" />
<glyph unicode="&#xe6;" horiz-adv-x="1978" d="M66 512q0 145 65 267t182 193.5t260 71.5q92 0 177 -41.5t139 -105.5v127h241v-78q129 98 295 98q218 0 353 -144.5t135 -373.5q0 -41 -8 -123h-762q31 -96 112 -150t195 -54q162 0 254 102l151 -154q-150 -167 -407 -167q-186 0 -318 104v-84h-241v131 q-54 -66 -138.5 -108.5t-177.5 -42.5q-143 0 -260 71.5t-182 193.5t-65 267zM307 512q0 -120 85.5 -205.5t205.5 -85.5t205.5 85.5t85.5 205.5t-85.5 205.5t-205.5 85.5t-205.5 -85.5t-85.5 -205.5zM1137 592h551q-15 107 -90 171t-179 64q-107 0 -186 -65t-96 -170z" />
<glyph unicode="&#xe7;" horiz-adv-x="1028" d="M66 512q0 145 71.5 267.5t194 193.5t266.5 71q112 0 212 -43.5t173 -121.5l-170 -170q-41 44 -97 69t-118 25q-120 0 -205.5 -85.5t-85.5 -205.5t85.5 -205.5t205.5 -85.5q129 0 215 96l170 -172q-122 -132 -303 -159l-8 -60q155 -49 155 -166q0 -91 -73 -140.5 t-191 -49.5q-103 0 -225 39l53 133q80 -33 166 -33q37 0 64.5 13t27.5 38q0 28 -42.5 45.5t-125.5 30.5l27 152q-190 32 -316 180.5t-126 343.5z" />
<glyph unicode="&#xe8;" horiz-adv-x="1140" d="M66 512q0 226 150 379t372 153q218 0 353.5 -144.5t135.5 -373.5q0 -20 -10 -123h-762q31 -96 112 -150t195 -54q162 0 254 102l154 -154q-150 -167 -410 -167q-152 0 -277 70t-196 192t-71 270zM301 592h549q-15 107 -88.5 171t-177.5 64q-107 0 -187.5 -65.5 t-95.5 -169.5zM354 1477h228l157 -310h-211z" />
<glyph unicode="&#xe9;" horiz-adv-x="1140" d="M66 512q0 226 150 379t372 153q218 0 353.5 -144.5t135.5 -373.5q0 -20 -10 -123h-762q31 -96 112 -150t195 -54q162 0 254 102l154 -154q-150 -167 -410 -167q-152 0 -277 70t-196 192t-71 270zM301 592h549q-15 107 -88.5 171t-177.5 64q-107 0 -187.5 -65.5 t-95.5 -169.5zM416 1167l155 310h230l-174 -310h-211z" />
<glyph unicode="&#xea;" horiz-adv-x="1140" d="M66 512q0 226 150 379t372 153q218 0 353.5 -144.5t135.5 -373.5q0 -20 -10 -123h-762q31 -96 112 -150t195 -54q162 0 254 102l154 -154q-150 -167 -410 -167q-152 0 -277 70t-196 192t-71 270zM197 1167l247 310h254l248 -310h-227l-148 162l-147 -162h-227zM301 592 h549q-15 107 -88.5 171t-177.5 64q-107 0 -187.5 -65.5t-95.5 -169.5z" />
<glyph unicode="&#xeb;" horiz-adv-x="1140" d="M66 512q0 226 150 379t372 153q218 0 353.5 -144.5t135.5 -373.5q0 -20 -10 -123h-762q31 -96 112 -150t195 -54q162 0 254 102l154 -154q-150 -167 -410 -167q-152 0 -277 70t-196 192t-71 270zM231 1358q0 55 39 94t95 39q54 0 93.5 -39t39.5 -94t-39.5 -94t-93.5 -39 q-56 0 -95 39t-39 94zM301 592h549q-15 107 -88.5 171t-177.5 64q-107 0 -187.5 -65.5t-95.5 -169.5zM645 1358q0 56 38.5 94.5t94.5 38.5t94.5 -38.5t38.5 -94.5t-38.5 -94.5t-94.5 -38.5t-94.5 38.5t-38.5 94.5z" />
<glyph unicode="&#xec;" horiz-adv-x="479" d="M-14 1477h229l156 -310h-211zM119 0v1024h241v-1024h-241z" />
<glyph unicode="&#xed;" horiz-adv-x="479" d="M109 1167l157 310h228l-175 -310h-210zM119 0v1024h241v-1024h-241z" />
<glyph unicode="&#xee;" horiz-adv-x="479" d="M-135 1167l248 310h254l247 -310h-227l-147 162l-148 -162h-227zM119 0v1024h241v-1024h-241z" />
<glyph unicode="&#xef;" horiz-adv-x="479" d="M-100 1358q0 56 39 94.5t94 38.5t94 -38.5t39 -94.5t-39 -94.5t-94 -38.5t-94 38.5t-39 94.5zM119 0v1024h241v-1024h-241zM313 1358q0 56 38.5 94.5t94.5 38.5t95 -39t39 -94t-39 -94t-95 -39t-94.5 38.5t-38.5 94.5z" />
<glyph unicode="&#xf0;" horiz-adv-x="1142" d="M66 475q0 203 131 342t327 139q151 0 277 -102q-65 212 -232 342l-108 -141l-129 98l102 133q-65 35 -176 76l90 190q113 -33 219 -94l115 154l129 -101l-111 -143q182 -144 279.5 -356.5t97.5 -452.5q0 -261 -141.5 -420t-374.5 -159q-210 0 -352.5 142.5t-142.5 352.5z M307 475q0 -108 77 -181t185 -73q107 0 183.5 72.5t76.5 181.5q0 108 -76.5 181t-183.5 73t-184.5 -73.5t-77.5 -180.5z" />
<glyph unicode="&#xf1;" horiz-adv-x="1187" d="M119 0v1024h241v-111q58 61 138.5 96t169.5 35q180 0 290.5 -117t110.5 -311v-616h-242v565q0 125 -59 188.5t-160 63.5q-107 0 -177.5 -72.5t-70.5 -191.5v-553h-241zM264 1227q6 268 213 268q53 0 96.5 -19t68 -41.5t55 -41.5t59.5 -19q33 0 47 23t16 78h162 q-3 -273 -213 -273q-44 0 -80.5 12.5t-61 31t-45.5 36.5t-44.5 30.5t-47.5 12.5q-33 0 -47 -22.5t-16 -75.5h-162z" />
<glyph unicode="&#xf2;" horiz-adv-x="1196" d="M66 512q0 145 71.5 267.5t194 193.5t266.5 71q145 0 267.5 -71t193.5 -193.5t71 -267.5q0 -144 -71 -266.5t-193.5 -194t-267.5 -71.5q-144 0 -266.5 71.5t-194 194t-71.5 266.5zM307 512q0 -120 85.5 -205.5t205.5 -85.5t205.5 85.5t85.5 205.5t-85.5 205.5t-205.5 85.5 t-205.5 -85.5t-85.5 -205.5zM336 1477h227l156 -310h-211z" />
<glyph unicode="&#xf3;" horiz-adv-x="1196" d="M66 512q0 145 71.5 267.5t194 193.5t266.5 71q145 0 267.5 -71t193.5 -193.5t71 -267.5q0 -144 -71 -266.5t-193.5 -194t-267.5 -71.5q-144 0 -266.5 71.5t-194 194t-71.5 266.5zM307 512q0 -120 85.5 -205.5t205.5 -85.5t205.5 85.5t85.5 205.5t-85.5 205.5t-205.5 85.5 t-205.5 -85.5t-85.5 -205.5zM487 1167l156 310h227l-172 -310h-211z" />
<glyph unicode="&#xf4;" horiz-adv-x="1196" d="M66 512q0 145 71.5 267.5t194 193.5t266.5 71q145 0 267.5 -71t193.5 -193.5t71 -267.5q0 -144 -71 -266.5t-193.5 -194t-267.5 -71.5q-144 0 -266.5 71.5t-194 194t-71.5 266.5zM223 1167l248 310h254l248 -310h-228l-147 162l-147 -162h-228zM307 512 q0 -120 85.5 -205.5t205.5 -85.5t205.5 85.5t85.5 205.5t-85.5 205.5t-205.5 85.5t-205.5 -85.5t-85.5 -205.5z" />
<glyph unicode="&#xf5;" horiz-adv-x="1196" d="M66 512q0 145 71.5 267.5t194 193.5t266.5 71q145 0 267.5 -71t193.5 -193.5t71 -267.5q0 -144 -71 -266.5t-193.5 -194t-267.5 -71.5q-144 0 -266.5 71.5t-194 194t-71.5 266.5zM240 1227q6 268 213 268q53 0 96.5 -19t67.5 -41.5t54.5 -41.5t59.5 -19q33 0 47.5 23.5 t16.5 77.5h161q-3 -273 -213 -273q-44 0 -80.5 12.5t-60.5 31t-45 36.5t-44.5 30.5t-47.5 12.5q-33 0 -47.5 -22.5t-16.5 -75.5h-161zM307 512q0 -120 85.5 -205.5t205.5 -85.5t205.5 85.5t85.5 205.5t-85.5 205.5t-205.5 85.5t-205.5 -85.5t-85.5 -205.5z" />
<glyph unicode="&#xf6;" horiz-adv-x="1196" d="M66 512q0 145 71.5 267.5t194 193.5t266.5 71q145 0 267.5 -71t193.5 -193.5t71 -267.5q0 -144 -71 -266.5t-193.5 -194t-267.5 -71.5q-144 0 -266.5 71.5t-194 194t-71.5 266.5zM258 1358q0 56 39 94.5t94 38.5t94 -38.5t39 -94.5t-39 -94.5t-94 -38.5t-94 38.5 t-39 94.5zM307 512q0 -120 85.5 -205.5t205.5 -85.5t205.5 85.5t85.5 205.5t-85.5 205.5t-205.5 85.5t-205.5 -85.5t-85.5 -205.5zM672 1358q0 56 39 94.5t94 38.5t94 -38.5t39 -94.5t-39 -94.5t-94 -38.5t-94 38.5t-39 94.5z" />
<glyph unicode="&#xf7;" horiz-adv-x="1050" d="M86 616v242h879v-242h-879zM377 358q0 63 43 107.5t106 44.5q62 0 107 -44.5t45 -107.5q0 -61 -45 -105t-107 -44q-63 0 -106 43.5t-43 105.5zM377 1116q0 63 43 107.5t106 44.5q62 0 107 -44.5t45 -107.5t-45 -107t-107 -44q-63 0 -106 44t-43 107z" />
<glyph unicode="&#xf8;" horiz-adv-x="1196" d="M66 512q0 145 71.5 267.5t194 193.5t266.5 71q76 0 150 -22l59 125h186l-94 -197q106 -74 168.5 -189t62.5 -249q0 -145 -71 -267.5t-193.5 -193.5t-267.5 -71q-71 0 -149 20l-58 -123h-186l94 195q-108 73 -170.5 189.5t-62.5 250.5zM307 512q0 -62 27 -117t74 -94 l231 492q-24 4 -37 4q-123 0 -209 -81t-86 -204zM557 229q14 -2 43 -2q119 0 204 83t85 202q0 62 -26.5 116.5t-71.5 92.5z" />
<glyph unicode="&#xf9;" horiz-adv-x="1187" d="M119 408v616h241v-565q0 -124 60 -188t160 -64q106 0 176.5 73t70.5 191v553h242v-1024h-242v111q-58 -61 -138 -96t-169 -35q-180 0 -290.5 117t-110.5 311zM342 1477h229l156 -310h-211z" />
<glyph unicode="&#xfa;" horiz-adv-x="1187" d="M119 408v616h241v-565q0 -124 60 -188t160 -64q106 0 176.5 73t70.5 191v553h242v-1024h-242v111q-58 -61 -138 -96t-169 -35q-180 0 -290.5 117t-110.5 311zM461 1167l155 310h230l-174 -310h-211z" />
<glyph unicode="&#xfb;" horiz-adv-x="1187" d="M119 408v616h241v-565q0 -124 60 -188t160 -64q106 0 176.5 73t70.5 191v553h242v-1024h-242v111q-58 -61 -138 -96t-169 -35q-180 0 -290.5 117t-110.5 311zM219 1167l248 310h254l248 -310h-228l-147 162l-148 -162h-227z" />
<glyph unicode="&#xfc;" horiz-adv-x="1187" d="M119 408v616h241v-565q0 -124 60 -188t160 -64q106 0 176.5 73t70.5 191v553h242v-1024h-242v111q-58 -61 -138 -96t-169 -35q-180 0 -290.5 117t-110.5 311zM254 1358q0 56 39 94.5t94 38.5t94 -38.5t39 -94.5t-39 -94.5t-94 -38.5t-94 38.5t-39 94.5zM668 1358 q0 56 39 94.5t94 38.5t94 -38.5t39 -94.5t-39 -94.5t-94 -38.5t-94 38.5t-39 94.5z" />
<glyph unicode="&#xfd;" horiz-adv-x="1132" d="M16 1024h263l294 -721l281 721h262l-481 -1208q-115 -287 -408 -287q-63 0 -94 2v233q9 0 28 -1t29 -1q74 0 124.5 33.5t84.5 110.5l41 94zM424 1167l156 310h229l-174 -310h-211z" />
<glyph unicode="&#xfe;" d="M119 -453v1928h241v-578q54 64 139 105.5t177 41.5q144 0 261 -71.5t182 -193.5t65 -267t-65 -267t-182 -193.5t-261 -71.5q-93 0 -177.5 42.5t-138.5 108.5v-584h-241zM360 512q0 -120 85.5 -205.5t205.5 -85.5t205.5 85.5t85.5 205.5t-85.5 205.5t-205.5 85.5 t-205.5 -85.5t-85.5 -205.5z" />
<glyph unicode="&#xff;" horiz-adv-x="1132" d="M16 1024h263l294 -721l281 721h262l-481 -1208q-115 -287 -408 -287q-63 0 -94 2v233q9 0 28 -1t29 -1q74 0 124.5 33.5t84.5 110.5l41 94zM227 1358q0 56 38.5 94.5t94.5 38.5q54 0 93 -39t39 -94t-39 -94t-93 -39q-56 0 -94.5 38.5t-38.5 94.5zM641 1358 q0 56 38.5 94.5t94.5 38.5t94.5 -38.5t38.5 -94.5t-38.5 -94.5t-94.5 -38.5t-94.5 38.5t-38.5 94.5z" />
<glyph unicode="&#x152;" horiz-adv-x="2019" d="M74 737q0 159 53.5 296.5t147 234.5t226 152t285.5 55h1160v-242h-711v-404h629v-241h-629v-346h711v-242h-1160q-153 0 -285.5 55t-226 152t-147 234t-53.5 296zM315 737q0 -221 130 -358t341 -137h207v991h-207q-211 0 -341 -137.5t-130 -358.5z" />
<glyph unicode="&#x153;" horiz-adv-x="1982" d="M66 512q0 144 71.5 266.5t194 194t266.5 71.5q125 0 235 -55t183 -151q68 96 176 151t235 55q219 0 354.5 -144t135.5 -374q0 -41 -8 -123h-762q29 -95 111 -149.5t196 -54.5q76 0 142.5 26t109.5 76l154 -154q-150 -167 -410 -167q-134 0 -247 55.5t-185 152.5 q-73 -97 -183 -152.5t-237 -55.5q-144 0 -266.5 71.5t-194 194t-71.5 266.5zM307 512q0 -120 85.5 -204.5t205.5 -86.5q120 0 205.5 85.5t85.5 205.5t-85.5 205.5t-205.5 85.5t-205.5 -85.5t-85.5 -205.5zM1141 592h551q-15 107 -90 171t-179 64q-107 0 -186 -65t-96 -170z " />
<glyph unicode="&#x178;" horiz-adv-x="1294" d="M8 1475h271l368 -711l369 711h270l-518 -983v-492h-242v492zM307 1763q0 54 39 93.5t94 39.5t94 -39.5t39 -93.5q0 -55 -38.5 -94t-94.5 -39t-94.5 39t-38.5 94zM721 1763q0 54 39.5 93.5t93.5 39.5q55 0 94 -39.5t39 -93.5q0 -55 -38.5 -94t-94.5 -39q-54 0 -93.5 39 t-39.5 94z" />
<glyph unicode="&#x2c6;" horiz-adv-x="894" d="M74 1167l248 310h253l248 -310h-227l-147 162l-148 -162h-227z" />
<glyph unicode="&#x2dc;" horiz-adv-x="929" d="M106 1227q6 268 216 268q53 0 96 -19t67 -41.5t54 -41.5t59 -19q33 0 47.5 23.5t16.5 77.5h161q-3 -273 -213 -273q-43 0 -79.5 12.5t-60.5 31t-45 36.5t-44 30.5t-47 12.5q-34 0 -49.5 -23t-16.5 -75h-162z" />
<glyph unicode="&#x2000;" horiz-adv-x="1053" />
<glyph unicode="&#x2001;" horiz-adv-x="2107" />
<glyph unicode="&#x2002;" horiz-adv-x="1053" />
<glyph unicode="&#x2003;" horiz-adv-x="2107" />
<glyph unicode="&#x2004;" horiz-adv-x="702" />
<glyph unicode="&#x2005;" horiz-adv-x="526" />
<glyph unicode="&#x2006;" horiz-adv-x="351" />
<glyph unicode="&#x2007;" horiz-adv-x="351" />
<glyph unicode="&#x2008;" horiz-adv-x="263" />
<glyph unicode="&#x2009;" horiz-adv-x="421" />
<glyph unicode="&#x200a;" horiz-adv-x="117" />
<glyph unicode="&#x2010;" horiz-adv-x="890" d="M123 412v241h645v-241h-645z" />
<glyph unicode="&#x2011;" horiz-adv-x="890" d="M123 412v241h645v-241h-645z" />
<glyph unicode="&#x2012;" horiz-adv-x="890" d="M123 412v241h645v-241h-645z" />
<glyph unicode="&#x2013;" horiz-adv-x="1046" d="M0 412v241h1047v-241h-1047z" />
<glyph unicode="&#x2014;" horiz-adv-x="1714" d="M0 412v241h1714v-241h-1714z" />
<glyph unicode="&#x2018;" horiz-adv-x="440" d="M86 897l102 578h187l-41 -578h-248z" />
<glyph unicode="&#x2019;" horiz-adv-x="440" d="M66 897l40 578h248l-102 -578h-186z" />
<glyph unicode="&#x201a;" horiz-adv-x="440" d="M66 -303l40 555h248l-102 -555h-186z" />
<glyph unicode="&#x201c;" horiz-adv-x="763" d="M86 897l143 578h183l-82 -578h-244zM414 897l102 578h182l-41 -578h-243z" />
<glyph unicode="&#x201d;" horiz-adv-x="763" d="M66 897l40 578h244l-102 -578h-182zM352 897l82 578h244l-143 -578h-183z" />
<glyph unicode="&#x201e;" horiz-adv-x="763" d="M66 -303l40 555h244l-102 -555h-182zM352 -303l82 555h244l-143 -555h-183z" />
<glyph unicode="&#x2022;" horiz-adv-x="937" d="M172 705q0 123 87 209.5t210 86.5t210 -86.5t87 -209.5t-87 -210t-210 -87t-210 87t-87 210z" />
<glyph unicode="&#x2026;" horiz-adv-x="1546" d="M106 131q0 63 44.5 107.5t107.5 44.5t107.5 -44.5t44.5 -107.5t-44.5 -107t-107.5 -44t-107.5 44t-44.5 107zM623 131q0 63 44 107.5t107 44.5q62 0 106 -44.5t44 -107.5t-44 -107t-106 -44q-63 0 -107 44t-44 107zM1137 131q0 63 44 107.5t107 44.5t107.5 -44.5 t44.5 -107.5t-44.5 -107t-107.5 -44t-107 44t-44 107z" />
<glyph unicode="&#x202f;" horiz-adv-x="421" />
<glyph unicode="&#x2039;" horiz-adv-x="759" d="M106 532l248 383h299l-250 -383l250 -382h-299z" />
<glyph unicode="&#x203a;" horiz-adv-x="759" d="M106 150l250 382l-250 383h297l250 -383l-250 -382h-297z" />
<glyph unicode="&#x205f;" horiz-adv-x="526" />
<glyph unicode="&#x20ac;" horiz-adv-x="1138" d="M12 492v180h82q-2 23 -2 65q0 46 2 66h-82v180h109q59 231 222.5 371.5t404.5 140.5q195 0 362 -98l-68 -223q-131 79 -286 79q-141 0 -237.5 -72.5t-141.5 -197.5h489v-180h-530q-2 -20 -2 -66q0 -42 2 -65h530v-180h-489q45 -125 141.5 -198t237.5 -73q153 0 286 80 l68 -221q-165 -100 -362 -100q-241 0 -404.5 140.5t-222.5 371.5h-109z" />
<glyph unicode="&#x2122;" horiz-adv-x="1425" d="M98 1337v138h498v-138h-180v-428h-137v428h-181zM711 909v566h129l180 -299l178 299h129v-566h-137v287l-123 -221h-94l-125 221v-287h-137z" />
<glyph unicode="&#x25fc;" horiz-adv-x="1024" d="M0 0v1024h1024v-1024h-1024z" />
</font>
</defs>
</svg>
